<svg width="125" height="24" viewBox="0 0 125 24" fill="none" xmlns="http://www.w3.org/2000/svg">
<path d="M9.89708 13.3235C9.89708 15.1916 8.20678 16.7117 6.12853 16.7117C4.78395 16.7117 3.60143 16.0746 2.93454 15.1189C2.57114 14.5978 2.35997 13.9823 2.35997 13.3226H4.86645C4.86645 13.9489 5.43316 14.4572 6.12853 14.4572C6.8239 14.4572 7.3906 13.9479 7.3906 13.3226C7.3906 12.7513 6.87595 12.2381 6.26799 12.2017C6.22085 12.1987 6.15996 12.1978 6.09513 12.1968C6.00576 12.1958 5.90459 12.1938 5.79361 12.1869C4.85368 12.1289 3.97661 11.7406 3.32642 11.0936C2.69096 10.4614 2.34033 9.65321 2.34033 8.81649C2.34033 6.94839 4.03063 5.42834 6.10888 5.42834C7.01836 5.42834 7.89641 5.72331 8.58196 6.26014C8.71848 6.36731 8.84616 6.48235 8.96402 6.60525C9.41876 7.08014 9.72029 7.66023 9.83029 8.28162V8.28654C9.83324 8.29736 9.8352 8.30817 9.83618 8.318H9.83422L7.35917 8.6464H7.35721C7.26685 8.0958 6.72961 7.68088 6.10888 7.68088C5.41253 7.68088 4.84681 8.19018 4.84681 8.81551C4.84681 9.38675 5.35949 9.89999 5.96549 9.93735C6.01263 9.9403 6.07451 9.94129 6.14031 9.94227C6.22772 9.94325 6.32692 9.94522 6.43496 9.95112C7.37685 10.0081 8.2549 10.3945 8.90706 11.0395C9.54546 11.6717 9.89708 12.4819 9.89708 13.3196V13.3235Z" fill="#31393C"/>
<path d="M4.86536 13.3466V14.6385C4.86536 14.904 4.62571 15.1193 4.33106 15.1193H2.93443C2.57103 14.5982 2.35986 13.9827 2.35986 13.323C2.37361 13.0683 2.60737 12.8658 2.89416 12.8658H4.33106C4.61785 12.8658 4.85161 13.0683 4.86536 13.323C4.86536 13.3308 4.86536 13.3387 4.86536 13.3466Z" fill="#31393C"/>
<path d="M9.37467 8.82958L7.95152 9.00754C7.67848 9.04195 7.42508 8.88365 7.35928 8.64867C7.35437 8.63195 7.35044 8.61426 7.34847 8.59754L7.15106 7.3174C7.11079 7.0539 7.31508 6.81203 7.60776 6.77565L8.96413 6.60654C9.41887 7.08143 9.72039 7.66152 9.83039 8.28291V8.28783C9.83236 8.29864 9.83334 8.30946 9.83432 8.32027C9.85396 8.57099 9.65459 8.79517 9.37467 8.83056V8.82958Z" fill="#31393C"/>
<path d="M1.78262 6.6098C2.76714 6.6098 3.56524 5.81084 3.56524 4.82527C3.56524 3.8397 2.76714 3.04074 1.78262 3.04074C0.798107 3.04074 0 3.8397 0 4.82527C0 5.81084 0.798107 6.6098 1.78262 6.6098Z" fill="#009FB7"/>
<path d="M13.6443 9.67184V10.3827C13.6443 10.6747 13.3948 10.9117 13.0864 10.9117H11.5867C11.4148 10.9117 11.2606 10.8379 11.1585 10.7219C11.0789 10.3935 11.0337 10.0533 11.0288 9.70331C11.0288 9.69249 11.0288 9.68167 11.0288 9.67086V9.66103C11.0347 8.98064 11.6181 8.43103 12.337 8.43103C13.056 8.43103 13.6453 8.98654 13.6453 9.67086L13.6443 9.67184Z" fill="#31393C"/>
<path d="M13.6443 9.67184V16.2367C13.6443 16.5288 13.3948 16.7657 13.0864 16.7657H11.5867C11.2783 16.7657 11.0288 16.5288 11.0288 16.2367V9.66103C11.0347 8.98064 11.6181 8.43103 12.337 8.43103C13.056 8.43103 13.6453 8.98654 13.6453 9.67086L13.6443 9.67184Z" fill="#31393C"/>
<path d="M13.6443 9.67184V16.2367C13.6443 16.5288 13.3948 16.7657 13.0864 16.7657H11.5867C11.2783 16.7657 11.0288 16.5288 11.0288 16.2367V9.66103C11.0347 8.98064 11.6181 8.43103 12.337 8.43103C13.056 8.43103 13.6453 8.98654 13.6453 9.67086L13.6443 9.67184Z" fill="#31393C"/>
<path d="M17.4109 9.63834V16.2032C17.4109 16.4953 17.1614 16.7322 16.853 16.7322H15.3533C15.0449 16.7322 14.7954 16.4953 14.7954 16.2032V9.62752C14.8013 8.94714 15.3847 8.39752 16.1036 8.39752C16.2215 8.39752 16.3354 8.41227 16.4435 8.4398C17.0013 8.58138 17.4119 9.06414 17.4119 9.63735L17.4109 9.63834Z" fill="#31393C"/>
<path d="M17.4109 8.41623V14.9811C17.4109 15.2731 17.1614 15.5101 16.853 15.5101H15.3533C15.0449 15.5101 14.7954 15.2731 14.7954 14.9811V8.40541C14.8013 7.72503 15.3847 7.17542 16.1036 7.17542C16.2215 7.17542 16.3354 7.19016 16.4435 7.21769C17.0013 7.35927 17.4119 7.84203 17.4119 8.41524L17.4109 8.41623Z" fill="#31393C"/>
<path d="M12.3361 6.90978C13.0586 6.90978 13.6443 6.35468 13.6443 5.66994C13.6443 4.9852 13.0586 4.43011 12.3361 4.43011C11.6135 4.43011 11.0278 4.9852 11.0278 5.66994C11.0278 6.35468 11.6135 6.90978 12.3361 6.90978Z" fill="#31393C"/>
<path d="M13.6443 9.67184C13.6443 10.3571 13.0589 10.9117 12.3361 10.9117C11.6132 10.9117 11.0465 10.3739 11.0288 9.70331C11.0288 9.69249 11.0288 9.68167 11.0288 9.67086V9.66103C11.0347 8.98064 11.6181 8.43103 12.337 8.43103C13.056 8.43103 13.6453 8.98654 13.6453 9.67086L13.6443 9.67184Z" fill="#31393C"/>
<path d="M13.6443 8.41623V14.9811C13.6443 15.2731 13.3948 15.5101 13.0864 15.5101H11.5867C11.2783 15.5101 11.0288 15.2731 11.0288 14.9811V8.40541C11.0347 7.72503 11.6181 7.17542 12.337 7.17542C13.056 7.17542 13.6453 7.73093 13.6453 8.41524L13.6443 8.41623Z" fill="#31393C"/>
<path d="M13.6443 8.41623C13.6443 9.10153 13.0589 9.65606 12.3361 9.65606C11.6132 9.65606 11.0465 9.11824 11.0288 8.44769C11.0288 8.43687 11.0288 8.42606 11.0288 8.41524V8.40541C11.0347 7.72503 11.6181 7.17542 12.337 7.17542C13.056 7.17542 13.6453 7.73093 13.6453 8.41524L13.6443 8.41623Z" fill="#31393C"/>
<path d="M36.2434 9.67184V10.3827C36.2434 10.6747 35.994 10.9117 35.6856 10.9117H34.1858C34.0139 10.9117 33.8597 10.8379 33.7576 10.7219C33.678 10.3935 33.6328 10.0533 33.6279 9.70331C33.6279 9.69249 33.6279 9.68167 33.6279 9.67086V9.66103C33.6338 8.98064 34.2172 8.43103 34.9362 8.43103C35.6551 8.43103 36.2444 8.98654 36.2444 9.67086L36.2434 9.67184Z" fill="#31393C"/>
<path d="M36.2434 10.9608V17.5257C36.2434 17.8177 35.994 18.0546 35.6856 18.0546H34.1858C33.8774 18.0546 33.6279 17.8177 33.6279 17.5257V10.9499C33.6338 10.2696 34.2172 9.71994 34.9362 9.71994C35.6551 9.71994 36.2444 10.2755 36.2444 10.9598L36.2434 10.9608Z" fill="#31393C"/>
<path d="M36.2434 16.883V23.4479C36.2434 23.7399 35.994 23.9769 35.6856 23.9769H34.1858C33.8774 23.9769 33.6279 23.7399 33.6279 23.4479V16.8722C33.6338 16.1918 34.2172 15.6422 34.9362 15.6422C35.6551 15.6422 36.2444 16.1977 36.2444 16.882L36.2434 16.883Z" fill="#31393C"/>
<path d="M36.2434 9.67184C36.2434 10.3571 35.6581 10.9117 34.9352 10.9117C34.2123 10.9117 33.6456 10.3739 33.6279 9.70331C33.6279 9.69249 33.6279 9.68167 33.6279 9.67086V9.66103C33.6338 8.98064 34.2172 8.43103 34.9362 8.43103C35.6551 8.43103 36.2444 8.98654 36.2444 9.67086L36.2434 9.67184Z" fill="#31393C"/>
<path d="M36.2434 8.38046V14.9454C36.2434 15.2374 35.994 15.4743 35.6856 15.4743H34.1858C33.8774 15.4743 33.6279 15.2374 33.6279 14.9454V8.36965C33.6338 7.68926 34.2172 7.13965 34.9362 7.13965C35.6551 7.13965 36.2444 7.69516 36.2444 8.37948L36.2434 8.38046Z" fill="#31393C"/>
<path d="M36.2434 8.38046C36.2434 9.06576 35.6581 9.62029 34.9352 9.62029C34.2123 9.62029 33.6456 9.08248 33.6279 8.41192C33.6279 8.40111 33.6279 8.3903 33.6279 8.37948V8.36965C33.6338 7.68926 34.2172 7.13965 34.9362 7.13965C35.6551 7.13965 36.2444 7.69516 36.2444 8.37948L36.2434 8.38046Z" fill="#31393C"/>
<path d="M23.6358 8.76625C23.5278 8.65318 23.4149 8.54503 23.296 8.44179C22.3924 7.6562 21.1893 7.17542 19.8693 7.17542C18.5492 7.17542 17.3461 7.65522 16.4425 8.44179C15.4309 9.32176 14.7954 10.5862 14.7954 11.9882C14.7954 13.7964 15.8522 15.3744 17.4109 16.1964V11.9882C17.4109 10.7022 18.5139 9.65704 19.8693 9.65704C21.2246 9.65704 22.3276 10.7032 22.3276 11.9882V16.1964C22.8197 15.9368 23.2616 15.6025 23.6358 15.2092C24.4481 14.3558 24.9441 13.2261 24.9441 11.9882C24.9441 10.7504 24.4491 9.62066 23.6358 8.76723V8.76625Z" fill="#31393C"/>
<path d="M42.4684 8.70052C42.3603 8.58745 42.2474 8.47929 42.1285 8.37606C41.2249 7.59047 40.0218 7.10968 38.7018 7.10968C37.3817 7.10968 36.1786 7.58949 35.275 8.37606C34.2634 9.25603 33.6279 10.5204 33.6279 11.9225C33.6279 13.7306 34.6847 15.3087 36.2434 16.1306V11.9225C36.2434 10.6365 37.3464 9.59131 38.7018 9.59131C40.0572 9.59131 41.1601 10.6374 41.1601 11.9225V16.1306C41.6522 15.8711 42.0942 15.5368 42.4684 15.1435C43.2806 14.2901 43.7766 13.1604 43.7766 11.9225C43.7766 10.6846 43.2816 9.55493 42.4684 8.7015V8.70052Z" fill="#31393C"/>
<path d="M34.9352 15.1342C35.0432 15.2472 35.1562 15.3554 35.275 15.4586C36.1786 16.2442 37.3818 16.725 38.7018 16.725C40.0218 16.725 41.2249 16.2452 42.1285 15.4586C43.1402 14.5787 43.7756 13.3142 43.7756 11.9122C43.7756 10.1041 42.7188 8.52601 41.1601 7.70404V11.9122C41.1601 13.1982 40.0572 14.2434 38.7018 14.2434C37.3464 14.2434 36.2434 13.1972 36.2434 11.9122V7.70404C35.7514 7.96361 35.3094 8.2979 34.9352 8.69119C34.1229 9.54461 33.627 10.6743 33.627 11.9122C33.627 13.1501 34.122 14.2798 34.9352 15.1332V15.1342Z" fill="#31393C"/>
<path d="M24.9441 9.63872V16.2036C24.9441 16.4956 24.6946 16.7326 24.3862 16.7326H22.8865C22.5781 16.7326 22.3286 16.4956 22.3286 16.2036V9.6279C22.3335 9.05862 22.7431 8.58078 23.297 8.44019C23.4159 8.54342 23.5288 8.65157 23.6369 8.76464C23.7449 8.65157 23.8578 8.54342 23.9767 8.44019C24.5345 8.58177 24.9451 9.06452 24.9451 9.63774L24.9441 9.63872Z" fill="#31393C"/>
<path d="M32.4773 11.9866V16.2036C32.4773 16.4956 32.2278 16.7326 31.9194 16.7326H30.4197C30.1113 16.7326 29.8618 16.4956 29.8618 16.2036V9.62791C29.8667 9.05863 30.2763 8.58078 30.8302 8.44019C31.8419 9.32016 32.4773 10.5846 32.4773 11.9866Z" fill="#31393C"/>
<path d="M30.8287 8.44179C29.9251 7.6562 28.722 7.17542 27.402 7.17542C26.0819 7.17542 24.8788 7.65522 23.9752 8.44179C23.8564 8.54503 23.7434 8.65318 23.6354 8.76625C22.8231 9.61968 22.3271 10.7494 22.3271 11.9873C22.3271 13.2251 22.8222 14.3548 23.6354 15.2083C24.0096 15.6015 24.4516 15.9358 24.9436 16.1954V11.9873C24.9436 10.7012 26.0466 9.65606 27.402 9.65606C28.7574 9.65606 29.8603 10.7022 29.8603 11.9873V16.1954C31.419 15.3734 32.4758 13.7954 32.4758 11.9873C32.4758 10.5852 31.8404 9.32177 30.8287 8.44081V8.44179Z" fill="#31393C"/>
<path d="M58.8371 7.77711V11.9813C58.8371 13.2152 58.3431 14.342 57.5328 15.1935C57.4258 15.3065 57.3128 15.4147 57.194 15.517C56.6381 15.3754 56.2285 14.8946 56.2285 14.3223V7.77612C56.2285 7.48509 56.478 7.24814 56.7844 7.24814H58.2793C58.5867 7.24814 58.8352 7.48411 58.8352 7.77612L58.8371 7.77711Z" fill="#31393C"/>
<path d="M48.7183 11.9803V7.77612C48.7183 7.48509 48.9677 7.24814 49.2742 7.24814H50.769C51.0764 7.24814 51.3249 7.48411 51.3249 7.77612V14.3322C51.32 14.8995 50.9124 15.3764 50.3595 15.516C49.3508 14.638 48.7163 13.3785 48.7163 11.9803H48.7183Z" fill="#31393C"/>
<path d="M57.5327 8.77008C57.1594 8.37778 56.7194 8.04447 56.2284 7.78589V11.9822C56.2284 13.2643 55.1283 14.3075 53.7769 14.3075C52.4254 14.3075 51.3254 13.2643 51.3254 11.9822V7.78589C49.7716 8.60589 48.7178 10.179 48.7178 11.9822C48.7178 13.3804 49.3513 14.6399 50.3609 15.5179C51.2616 16.3015 52.4618 16.7803 53.7779 16.7803C55.094 16.7803 56.2942 16.3015 57.1948 15.5179C57.3127 15.4146 57.4256 15.3065 57.5336 15.1944C58.3439 14.3429 58.838 13.2172 58.838 11.9822C58.838 10.7473 58.3439 9.62155 57.5336 8.77008H57.5327Z" fill="#31393C"/>
<path d="M58.8371 14.9988V19.203C58.8371 20.4369 58.3431 21.5637 57.5328 22.4151C57.4258 22.5282 57.3128 22.6363 57.194 22.7386C56.6381 22.597 56.2285 22.1162 56.2285 21.544V14.9978C56.2285 14.7067 56.478 14.4698 56.7844 14.4698H58.2793C58.5867 14.4698 58.8352 14.7058 58.8352 14.9978L58.8371 14.9988Z" fill="#31393C"/>
<path d="M58.8371 11.7007V15.9049C58.8371 17.1388 58.3431 18.2656 57.5328 19.117C57.4258 19.2301 57.3128 19.3383 57.194 19.4405C56.6381 19.2989 56.2285 18.8181 56.2285 18.2459V11.6997C56.2285 11.4086 56.478 11.1717 56.7844 11.1717H58.2793C58.5867 11.1717 58.8352 11.4077 58.8352 11.6997L58.8371 11.7007Z" fill="#31393C"/>
<path d="M51.3254 18.8234V23.3983C50.9767 23.2144 50.6526 22.9922 50.3599 22.7386C49.3513 21.8606 48.7168 20.6011 48.7168 19.2029V18.8234C48.7168 18.7585 48.7286 18.6966 48.7512 18.6396C48.8297 18.439 49.034 18.2964 49.2727 18.2964H50.7675C51.075 18.2964 51.3234 18.5324 51.3234 18.8244L51.3254 18.8234Z" fill="#31393C"/>
<path d="M57.5331 15.9917C57.1599 15.5994 56.7199 15.2661 56.2288 15.0075V19.2039C56.2288 20.486 55.1288 21.5292 53.7774 21.5292C52.4259 21.5292 51.3259 20.486 51.3259 19.2039V18.8243C51.3259 18.5333 51.0764 18.2964 50.77 18.2964H49.2751C49.0365 18.2964 48.8322 18.4389 48.7536 18.6395C48.731 18.8243 48.7192 19.0121 48.7192 19.2029C48.7192 20.601 49.3527 21.8605 50.3624 22.7385C50.6551 22.9932 50.9782 23.2154 51.3279 23.3982C52.0547 23.7817 52.8905 24 53.7793 24C55.0954 24 56.2956 23.5211 57.1963 22.7375C57.3141 22.6343 57.4271 22.5261 57.5351 22.414C58.3454 21.5626 58.8394 20.4368 58.8394 19.2019C58.8394 17.967 58.3454 16.8412 57.5351 15.9897L57.5331 15.9917Z" fill="#31393C"/>
<path d="M47.5295 3.80694V10.3532C47.5295 10.6442 47.28 10.8812 46.9736 10.8812H45.4788C45.1713 10.8812 44.9229 10.6452 44.9229 10.3532V3.79711C44.9287 3.11869 45.5102 2.57104 46.2272 2.57104C46.9441 2.57104 47.5315 3.12459 47.5315 3.80793L47.5295 3.80694Z" fill="#31393C"/>
<path d="M47.5295 9.71078V16.257C47.5295 16.548 47.28 16.785 46.9736 16.785H45.4788C45.1713 16.785 44.9229 16.549 44.9229 16.257V9.70095C44.9287 9.02253 45.5102 8.47488 46.2272 8.47488C46.9441 8.47488 47.5315 9.02843 47.5315 9.71177L47.5295 9.71078Z" fill="#31393C"/>
<path d="M47.5295 1.2359V7.78212C47.5295 8.07315 47.28 8.31011 46.9736 8.31011H45.4788C45.1713 8.31011 44.9229 8.07414 44.9229 7.78212V1.22607C44.9287 0.547649 45.5102 0 46.2272 0C46.9441 0 47.5315 0.553547 47.5315 1.23688L47.5295 1.2359Z" fill="#31393C"/>
<path d="M47.5295 1.2359C47.5295 1.91923 46.9461 2.47278 46.2252 2.47278C45.5043 2.47278 44.9396 1.93594 44.9219 1.26834C44.9219 1.25753 44.9219 1.24671 44.9219 1.2359V1.22607C44.9278 0.547649 45.5092 0 46.2262 0C46.9432 0 47.5305 0.553547 47.5305 1.23688L47.5295 1.2359Z" fill="#31393C"/>
<path d="M71.3216 5.60673C70.6106 5.11611 69.3121 4.38067 67.9892 4.38067C67.671 4.38067 67.1809 4.42982 66.8616 4.67464C66.6407 4.84671 66.568 5.01779 66.568 5.26359C66.568 5.60673 66.6171 5.92627 67.5236 6.12193L69.4104 6.53882C70.8561 6.85738 71.7135 7.44632 72.2036 7.93694C73.2329 8.94277 73.4529 10.1934 73.4529 11.1747C73.4529 12.5728 73.0856 13.8726 71.9826 15.0259C71.0515 15.9826 69.2876 17.1113 66.2242 17.1113C63.7246 17.1113 62.0589 16.3994 60.6623 15.8361L60.123 15.6148L61.9116 11.0036L62.549 11.4942C63.1619 11.9602 64.4112 12.6957 65.8569 12.6957C66.6652 12.6957 67.009 12.499 67.1308 12.4017C67.4009 12.1805 67.449 11.9111 67.449 11.6663C67.449 11.5188 67.4244 11.274 67.2526 11.1019C67.0561 10.9053 66.7379 10.8325 66.125 10.7096L64.6793 10.4402C63.7482 10.2681 62.7435 9.97416 61.8369 9.04207C61.004 8.18373 60.6603 7.20248 60.6603 6.0246C60.6603 4.50357 61.1749 3.20376 62.2534 2.12419C63.5027 0.848967 65.3403 0.0142212 67.9381 0.0142212C69.2365 0.0142212 70.9278 0.235444 72.9118 1.43693L71.3187 5.60673H71.3216Z" fill="#31393C"/>
<path d="M91.1201 14.4862C89.7235 15.9089 87.4449 17.1104 84.3324 17.1104C81.22 17.1104 78.9414 15.9089 77.5447 14.4862C76.2709 13.1864 75.2661 11.1747 75.2661 8.54954C75.2661 5.92437 76.2709 3.93828 77.5447 2.63847C78.9414 1.21577 81.22 0.0142822 84.3324 0.0142822C87.4449 0.0142822 89.7235 1.21577 91.1201 2.63847C92.394 3.93828 93.3988 5.94993 93.3988 8.54954C93.3988 11.1492 92.394 13.1854 91.1201 14.4862ZM82.2011 6.12199C81.6128 6.73552 81.2701 7.69218 81.2701 8.57511C81.2701 9.50719 81.6128 10.4147 82.2011 11.0036C82.6912 11.4943 83.4259 11.8374 84.3334 11.8374C85.2409 11.8374 85.9746 11.4943 86.4657 11.0036C87.0049 10.4639 87.3968 9.60551 87.3968 8.57511C87.3968 7.5447 87.054 6.68636 86.4657 6.12199C86.0247 5.68053 85.3136 5.28823 84.3334 5.28823C83.2796 5.28823 82.594 5.70511 82.2011 6.12199Z" fill="#31393C"/>
<path d="M95.9463 16.7453V0.384674H101.877V11.4724H106.875V16.7463H95.9463V16.7453Z" fill="#31393C"/>
<path d="M106.312 0.382416H112.511L114.79 8.0849C114.986 8.723 115.108 9.67967 115.157 10.2676H115.305C115.329 9.60494 115.452 8.77118 115.647 8.0849L117.877 0.382416H124.076L117.754 16.7431H112.658L106.311 0.382416H106.312Z" fill="#31393C"/>
<path d="M84.3496 12.2208C86.3837 12.2208 88.0327 10.5701 88.0327 8.53379C88.0327 6.49749 86.3837 4.84674 84.3496 4.84674C82.3155 4.84674 80.6665 6.49749 80.6665 8.53379C80.6665 10.5701 82.3155 12.2208 84.3496 12.2208Z" fill="#009FB7"/>
<path d="M32.1066 18.3091H2.76948C2.58505 18.3091 2.43555 18.4587 2.43555 18.6434V19.5479C2.43555 19.7326 2.58505 19.8822 2.76948 19.8822H32.1066C32.291 19.8822 32.4406 19.7326 32.4406 19.5479V18.6434C32.4406 18.4587 32.291 18.3091 32.1066 18.3091Z" fill="#009FB7"/>
<path d="M3.67307 18.3091H2.76948C2.58505 18.3091 2.43555 18.4587 2.43555 18.6434V19.5479C2.43555 19.7326 2.58505 19.8822 2.76948 19.8822H3.67307C3.8575 19.8822 4.007 19.7326 4.007 19.5479V18.6434C4.007 18.4587 3.8575 18.3091 3.67307 18.3091Z" fill="#009FB7"/>
<path d="M32.1067 18.3091H31.2031C31.0186 18.3091 30.8691 18.4587 30.8691 18.6434V19.5479C30.8691 19.7326 31.0186 19.8822 31.2031 19.8822H32.1067C32.2911 19.8822 32.4406 19.7326 32.4406 19.5479V18.6434C32.4406 18.4587 32.2911 18.3091 32.1067 18.3091Z" fill="#009FB7"/>
<path d="M38.7854 18.3091H37.8818C37.6974 18.3091 37.5479 18.4587 37.5479 18.6434V19.5479C37.5479 19.7326 37.6974 19.8822 37.8818 19.8822H38.7854C38.9698 19.8822 39.1193 19.7326 39.1193 19.5479V18.6434C39.1193 18.4587 38.9698 18.3091 38.7854 18.3091Z" fill="#009FB7"/>
<path d="M47.232 18.3091H37.8818C37.6974 18.3091 37.5479 18.4587 37.5479 18.6434V19.5479C37.5479 19.7326 37.6974 19.8822 37.8818 19.8822H47.232C47.4164 19.8822 47.5659 19.7326 47.5659 19.5479V18.6434C47.5659 18.4587 47.4164 18.3091 47.232 18.3091Z" fill="#009FB7"/>
<path d="M47.2321 18.3091H46.3286C46.1441 18.3091 45.9946 18.4587 45.9946 18.6434V19.5479C45.9946 19.7326 46.1441 19.8822 46.3286 19.8822H47.2321C47.4166 19.8822 47.5661 19.7326 47.5661 19.5479V18.6434C47.5661 18.4587 47.4166 18.3091 47.2321 18.3091Z" fill="#009FB7"/>
</svg>
