<svg width="125" height="24" viewBox="0 0 125 24" fill="none" xmlns="http://www.w3.org/2000/svg">
<path d="M9.8978 13.3239C9.8978 15.1921 8.20745 16.7122 6.12913 16.7122C4.78451 16.7122 3.60195 16.075 2.93505 15.1193C2.57164 14.5982 2.36046 13.9827 2.36046 13.3229H4.86702C4.86702 13.9493 5.43374 14.4576 6.12913 14.4576C6.82453 14.4576 7.39125 13.9483 7.39125 13.3229C7.39125 12.7517 6.87658 12.2384 6.2686 12.202C6.22146 12.1991 6.16056 12.1981 6.09574 12.1971C6.00636 12.1961 5.90519 12.1942 5.79421 12.1873C4.85425 12.1293 3.97715 11.7409 3.32694 11.0939C2.69146 10.4617 2.34082 9.65346 2.34082 8.81672C2.34082 6.94856 4.03117 5.42847 6.10949 5.42847C7.019 5.42847 7.89708 5.72344 8.58265 6.26029C8.71917 6.36746 8.84686 6.4825 8.96472 6.60541C9.41948 7.08032 9.72101 7.66043 9.83102 8.28184V8.28676C9.83396 8.29757 9.83593 8.30838 9.83691 8.31822H9.83494L7.35982 8.64662H7.35786C7.26749 8.09601 6.73024 7.68108 6.10949 7.68108C5.41312 7.68108 4.84737 8.19039 4.84737 8.81574C4.84737 9.387 5.36008 9.90026 5.96609 9.93762C6.01324 9.94057 6.07511 9.94155 6.14092 9.94254C6.22834 9.94352 6.32754 9.94549 6.43558 9.95139C7.3775 10.0084 8.25558 10.3948 8.90775 11.0398C9.54618 11.6721 9.8978 12.4823 9.8978 13.32V13.3239Z" fill="white"/>
<path d="M4.86592 13.3475V14.6395C4.86592 14.905 4.62627 15.1203 4.33161 15.1203H2.93493C2.57152 14.5992 2.36035 13.9837 2.36035 13.3239C2.3741 13.0692 2.60786 12.8667 2.89466 12.8667H4.33161C4.61841 12.8667 4.85217 13.0692 4.86592 13.3239C4.86592 13.3318 4.86592 13.3396 4.86592 13.3475Z" fill="white"/>
<path d="M9.37523 8.83151L7.95203 9.00948C7.67898 9.04389 7.42558 8.88559 7.35977 8.65059C7.35486 8.63388 7.35093 8.61618 7.34897 8.59947L7.15155 7.31928C7.11128 7.05578 7.31557 6.8139 7.60827 6.77752L8.96467 6.6084C9.41943 7.0833 9.72096 7.66342 9.83097 8.28483V8.28974C9.83293 8.30056 9.83391 8.31137 9.8349 8.32219C9.85454 8.57292 9.65515 8.7971 9.37523 8.83249V8.83151Z" fill="white"/>
<path d="M1.78268 6.61043C2.76722 6.61043 3.56536 5.81144 3.56536 4.82584C3.56536 3.84025 2.76722 3.04126 1.78268 3.04126C0.798132 3.04126 0 3.84025 0 4.82584C0 5.81144 0.798132 6.61043 1.78268 6.61043Z" fill="white"/>
<path d="M13.6449 9.67225V10.3831C13.6449 10.6752 13.3954 10.9121 13.087 10.9121H11.5872C11.4153 10.9121 11.2611 10.8384 11.1589 10.7224C11.0794 10.3939 11.0342 10.0537 11.0293 9.70371C11.0293 9.6929 11.0293 9.68208 11.0293 9.67126V9.66143C11.0352 8.98103 11.6186 8.4314 12.3376 8.4314C13.0565 8.4314 13.6459 8.98693 13.6459 9.67126L13.6449 9.67225Z" fill="white"/>
<path d="M13.6449 9.67225V16.2374C13.6449 16.5294 13.3954 16.7663 13.087 16.7663H11.5872C11.2788 16.7663 11.0293 16.5294 11.0293 16.2374V9.66143C11.0352 8.98103 11.6186 8.4314 12.3376 8.4314C13.0565 8.4314 13.6459 8.98693 13.6459 9.67126L13.6449 9.67225Z" fill="white"/>
<path d="M13.6449 9.67225V16.2374C13.6449 16.5294 13.3954 16.7663 13.087 16.7663H11.5872C11.2788 16.7663 11.0293 16.5294 11.0293 16.2374V9.66143C11.0352 8.98103 11.6186 8.4314 12.3376 8.4314C13.0565 8.4314 13.6459 8.98693 13.6459 9.67126L13.6449 9.67225Z" fill="white"/>
<path d="M17.4115 9.6388V16.2039C17.4115 16.4959 17.162 16.7329 16.8536 16.7329H15.3538C15.0454 16.7329 14.7959 16.4959 14.7959 16.2039V9.62799C14.8018 8.94758 15.3852 8.39795 16.1042 8.39795C16.222 8.39795 16.336 8.4127 16.444 8.44023C17.0019 8.58182 17.4125 9.06459 17.4125 9.63782L17.4115 9.6388Z" fill="white"/>
<path d="M17.4115 8.41566V14.9808C17.4115 15.2728 17.162 15.5098 16.8536 15.5098H15.3538C15.0454 15.5098 14.7959 15.2728 14.7959 14.9808V8.40484C14.8018 7.72444 15.3852 7.1748 16.1042 7.1748C16.222 7.1748 16.336 7.18955 16.444 7.21708C17.0019 7.35867 17.4125 7.84144 17.4125 8.41467L17.4115 8.41566Z" fill="white"/>
<path d="M12.3361 6.91028C13.0587 6.91028 13.6444 6.35517 13.6444 5.67041C13.6444 4.98565 13.0587 4.43054 12.3361 4.43054C11.6136 4.43054 11.0278 4.98565 11.0278 5.67041C11.0278 6.35517 11.6136 6.91028 12.3361 6.91028Z" fill="white"/>
<path d="M13.6449 9.67225C13.6449 10.3576 13.0595 10.9121 12.3366 10.9121C11.6137 10.9121 11.047 10.3743 11.0293 9.70371C11.0293 9.6929 11.0293 9.68208 11.0293 9.67126V9.66143C11.0352 8.98103 11.6186 8.4314 12.3376 8.4314C13.0565 8.4314 13.6459 8.98693 13.6459 9.67126L13.6449 9.67225Z" fill="white"/>
<path d="M13.6449 8.41566V14.9808C13.6449 15.2728 13.3954 15.5098 13.087 15.5098H11.5872C11.2788 15.5098 11.0293 15.2728 11.0293 14.9808V8.40484C11.0352 7.72444 11.6186 7.1748 12.3376 7.1748C13.0565 7.1748 13.6459 7.73034 13.6459 8.41467L13.6449 8.41566Z" fill="white"/>
<path d="M13.6449 8.41566C13.6449 9.10098 13.0595 9.65552 12.3366 9.65552C11.6137 9.65552 11.047 9.11769 11.0293 8.44712C11.0293 8.4363 11.0293 8.42549 11.0293 8.41467V8.40484C11.0352 7.72444 11.6186 7.1748 12.3376 7.1748C13.0565 7.1748 13.6459 7.73034 13.6459 8.41467L13.6449 8.41566Z" fill="white"/>
<path d="M36.245 9.67225V10.3831C36.245 10.6752 35.9955 10.9121 35.6871 10.9121H34.1873C34.0154 10.9121 33.8612 10.8384 33.759 10.7224C33.6795 10.3939 33.6343 10.0537 33.6294 9.70371C33.6294 9.6929 33.6294 9.68208 33.6294 9.67126V9.66143C33.6353 8.98103 34.2187 8.4314 34.9377 8.4314C35.6566 8.4314 36.246 8.98693 36.246 9.67126L36.245 9.67225Z" fill="white"/>
<path d="M36.245 10.9622V17.5273C36.245 17.8193 35.9955 18.0563 35.6871 18.0563H34.1873C33.8789 18.0563 33.6294 17.8193 33.6294 17.5273V10.9513C33.6353 10.2709 34.2187 9.72131 34.9377 9.72131C35.6566 9.72131 36.246 10.2768 36.246 10.9612L36.245 10.9622Z" fill="white"/>
<path d="M36.245 16.8823V23.4474C36.245 23.7395 35.9955 23.9764 35.6871 23.9764H34.1873C33.8789 23.9764 33.6294 23.7395 33.6294 23.4474V16.8715C33.6353 16.1911 34.2187 15.6415 34.9377 15.6415C35.6566 15.6415 36.246 16.197 36.246 16.8814L36.245 16.8823Z" fill="white"/>
<path d="M36.245 9.67225C36.245 10.3576 35.6596 10.9121 34.9367 10.9121C34.2138 10.9121 33.6471 10.3743 33.6294 9.70371C33.6294 9.6929 33.6294 9.68208 33.6294 9.67126V9.66143C33.6353 8.98103 34.2187 8.4314 34.9377 8.4314C35.6566 8.4314 36.246 8.98693 36.246 9.67126L36.245 9.67225Z" fill="white"/>
<path d="M36.245 8.38221V14.9473C36.245 15.2393 35.9955 15.4763 35.6871 15.4763H34.1873C33.8789 15.4763 33.6294 15.2393 33.6294 14.9473V8.3714C33.6353 7.69099 34.2187 7.14136 34.9377 7.14136C35.6566 7.14136 36.246 7.69689 36.246 8.38123L36.245 8.38221Z" fill="white"/>
<path d="M36.245 8.38221C36.245 9.06753 35.6596 9.62208 34.9367 9.62208C34.2138 9.62208 33.6471 9.08425 33.6294 8.41367C33.6294 8.40286 33.6294 8.39204 33.6294 8.38123V8.3714C33.6353 7.69099 34.2187 7.14136 34.9377 7.14136C35.6566 7.14136 36.246 7.69689 36.246 8.38123L36.245 8.38221Z" fill="white"/>
<path d="M23.6366 8.76569C23.5286 8.65262 23.4156 8.54446 23.2968 8.44122C22.3932 7.65561 21.19 7.1748 19.8699 7.1748C18.5498 7.1748 17.3466 7.65462 16.443 8.44122C15.4314 9.32122 14.7959 10.5857 14.7959 11.9878C14.7959 13.796 15.8527 15.3741 17.4115 16.1961V11.9878C17.4115 10.7017 18.5145 9.65651 19.8699 9.65651C21.2253 9.65651 22.3283 10.7027 22.3283 11.9878V16.1961C22.8204 15.9365 23.2624 15.6022 23.6366 15.2089C24.4489 14.3554 24.9449 13.2257 24.9449 11.9878C24.9449 10.7499 24.4499 9.62013 23.6366 8.76667V8.76569Z" fill="white"/>
<path d="M42.4701 8.69977C42.3621 8.5867 42.2491 8.47854 42.1303 8.3753C41.2266 7.58969 40.0235 7.10889 38.7034 7.10889C37.3833 7.10889 36.1801 7.58871 35.2765 8.3753C34.2649 9.25531 33.6294 10.5198 33.6294 11.9219C33.6294 13.73 34.6862 15.3081 36.245 16.1301V11.9219C36.245 10.6358 37.348 9.59059 38.7034 9.59059C40.0588 9.59059 41.1618 10.6368 41.1618 11.9219V16.1301C41.6539 15.8706 42.0959 15.5363 42.4701 15.143C43.2824 14.2895 43.7784 13.1598 43.7784 11.9219C43.7784 10.684 43.2834 9.55421 42.4701 8.70076V8.69977Z" fill="white"/>
<path d="M34.9367 15.1341C35.0447 15.2472 35.1577 15.3553 35.2765 15.4586C36.1802 16.2442 37.3833 16.725 38.7034 16.725C40.0235 16.725 41.2267 16.2452 42.1303 15.4586C43.1419 14.5786 43.7774 13.3141 43.7774 11.912C43.7774 10.1038 42.7206 8.52573 41.1618 7.70374V11.912C41.1618 13.1981 40.0588 14.2433 38.7034 14.2433C37.348 14.2433 36.245 13.1971 36.245 11.912V7.70374C35.7529 7.96331 35.3109 8.29761 34.9367 8.69091C34.1244 9.54437 33.6284 10.6741 33.6284 11.912C33.6284 13.1499 34.1234 14.2797 34.9367 15.1331V15.1341Z" fill="white"/>
<path d="M24.9447 9.63876V16.2039C24.9447 16.4959 24.6952 16.7329 24.3868 16.7329H22.887C22.5786 16.7329 22.3291 16.4959 22.3291 16.2039V9.62794C22.334 9.05864 22.7436 8.58079 23.2975 8.44019C23.4164 8.54343 23.5293 8.65158 23.6374 8.76465C23.7454 8.65158 23.8584 8.54343 23.9772 8.44019C24.5351 8.58177 24.9457 9.06454 24.9457 9.63777L24.9447 9.63876Z" fill="white"/>
<path d="M32.4784 11.9877V16.2049C32.4784 16.4969 32.2289 16.7338 31.9205 16.7338H30.4207C30.1123 16.7338 29.8628 16.4969 29.8628 16.2049V9.62892C29.8677 9.05962 30.2773 8.58177 30.8312 8.44116C31.8429 9.32116 32.4784 10.5856 32.4784 11.9877Z" fill="white"/>
<path d="M30.83 8.44122C29.9264 7.65561 28.7232 7.1748 27.4031 7.1748C26.083 7.1748 24.8799 7.65462 23.9762 8.44122C23.8574 8.54446 23.7444 8.65262 23.6364 8.76569C22.8241 9.61915 22.3281 10.7489 22.3281 11.9868C22.3281 13.2247 22.8232 14.3544 23.6364 15.2079C24.0106 15.6012 24.4526 15.9355 24.9447 16.1951V11.9868C24.9447 10.7007 26.0477 9.65552 27.4031 9.65552C28.7585 9.65552 29.8615 10.7017 29.8615 11.9868V16.1951C31.4203 15.3731 32.4771 13.795 32.4771 11.9868C32.4771 10.5847 31.8416 9.32122 30.83 8.44024V8.44122Z" fill="white"/>
<path d="M58.8392 7.77654V11.9809C58.8392 13.2149 58.3451 14.3417 57.5348 15.1931C57.4278 15.3062 57.3148 15.4144 57.196 15.5166C56.64 15.375 56.2305 14.8942 56.2305 14.322V7.77556C56.2305 7.48452 56.4799 7.24756 56.7864 7.24756H58.2813C58.5887 7.24756 58.8372 7.48354 58.8372 7.77556L58.8392 7.77654Z" fill="white"/>
<path d="M48.7197 11.9809V7.77654C48.7197 7.4855 48.9692 7.24854 49.2757 7.24854H50.7706C51.078 7.24854 51.3265 7.48451 51.3265 7.77654V14.3328C51.3216 14.9001 50.914 15.377 50.361 15.5166C49.3523 14.6386 48.7178 13.3791 48.7178 11.9809H48.7197Z" fill="white"/>
<path d="M57.5349 8.76951C57.1617 8.37719 56.7216 8.04387 56.2305 7.78528V11.9818C56.2305 13.2639 55.1305 14.3071 53.779 14.3071C52.4275 14.3071 51.3274 13.2639 51.3274 11.9818V7.78528C49.7736 8.6053 48.7197 10.1785 48.7197 11.9818C48.7197 13.3799 49.3532 14.6395 50.3629 15.5175C51.2636 16.3011 52.4638 16.78 53.78 16.78C55.0961 16.78 56.2964 16.3011 57.197 15.5175C57.3149 15.4143 57.4278 15.3061 57.5359 15.194C58.3462 14.3425 58.8402 13.2167 58.8402 11.9818C58.8402 10.7468 58.3462 9.62099 57.5359 8.76951H57.5349Z" fill="white"/>
<path d="M58.8392 14.9985V19.2028C58.8392 20.4368 58.3451 21.5636 57.5348 22.4151C57.4278 22.5281 57.3148 22.6363 57.196 22.7386C56.64 22.597 56.2305 22.1162 56.2305 21.5439V14.9975C56.2305 14.7064 56.4799 14.4695 56.7864 14.4695H58.2813C58.5887 14.4695 58.8372 14.7055 58.8372 14.9975L58.8392 14.9985Z" fill="white"/>
<path d="M58.8392 11.7006V15.905C58.8392 17.1389 58.3451 18.2657 57.5348 19.1172C57.4278 19.2303 57.3148 19.3384 57.196 19.4407C56.64 19.2991 56.2305 18.8183 56.2305 18.2461V11.6996C56.2305 11.4086 56.4799 11.1716 56.7864 11.1716H58.2813C58.5887 11.1716 58.8372 11.4076 58.8372 11.6996L58.8392 11.7006Z" fill="white"/>
<path d="M51.3275 18.8243V23.3993C50.9788 23.2154 50.6546 22.9932 50.362 22.7395C49.3532 21.8615 48.7188 20.602 48.7188 19.2038V18.8243C48.7188 18.7594 48.7305 18.6974 48.7531 18.6404C48.8317 18.4398 49.036 18.2972 49.2747 18.2972H50.7696C51.077 18.2972 51.3255 18.5332 51.3255 18.8252L51.3275 18.8243Z" fill="white"/>
<path d="M57.5349 15.9914C57.1617 15.5991 56.7216 15.2658 56.2305 15.0072V19.2037C56.2305 20.4858 55.1305 21.5291 53.779 21.5291C52.4275 21.5291 51.3274 20.4858 51.3274 19.2037V18.8242C51.3274 18.5331 51.078 18.2962 50.7715 18.2962H49.2766C49.0379 18.2962 48.8337 18.4387 48.7551 18.6393C48.7325 18.8242 48.7207 19.012 48.7207 19.2027C48.7207 20.6009 49.3542 21.8604 50.3639 22.7384C50.6566 22.9931 50.9797 23.2153 51.3294 23.3982C52.0562 23.7817 52.8921 23.9999 53.781 23.9999C55.0971 23.9999 56.2973 23.5211 57.198 22.7375C57.3159 22.6342 57.4288 22.5261 57.5369 22.414C58.3472 21.5625 58.8412 20.4367 58.8412 19.2017C58.8412 17.9668 58.3472 16.841 57.5369 15.9895L57.5349 15.9914Z" fill="white"/>
<path d="M47.5315 3.80808V10.3545C47.5315 10.6456 47.2821 10.8825 46.9756 10.8825H45.4807C45.1733 10.8825 44.9248 10.6465 44.9248 10.3545V3.79825C44.9307 3.11981 45.5122 2.57214 46.2292 2.57214C46.9462 2.57214 47.5335 3.12571 47.5335 3.80906L47.5315 3.80808Z" fill="white"/>
<path d="M47.5315 9.71152V16.258C47.5315 16.549 47.2821 16.786 46.9756 16.786H45.4807C45.1733 16.786 44.9248 16.55 44.9248 16.258V9.70169C44.9307 9.02325 45.5122 8.47559 46.2292 8.47559C46.9462 8.47559 47.5335 9.02915 47.5335 9.71251L47.5315 9.71152Z" fill="white"/>
<path d="M47.5315 1.23593V7.78237C47.5315 8.07341 47.2821 8.31037 46.9756 8.31037H45.4807C45.1733 8.31037 44.9248 8.07439 44.9248 7.78237V1.2261C44.9307 0.547666 45.5122 0 46.2292 0C46.9462 0 47.5335 0.553564 47.5335 1.23692L47.5315 1.23593Z" fill="white"/>
<path d="M47.5311 1.23593C47.5311 1.91929 46.9476 2.47286 46.2267 2.47286C45.5058 2.47286 44.941 1.936 44.9233 1.26838C44.9233 1.25757 44.9233 1.24675 44.9233 1.23593V1.2261C44.9292 0.547666 45.5107 0 46.2277 0C46.9447 0 47.532 0.553564 47.532 1.23692L47.5311 1.23593Z" fill="white"/>
<path d="M72.206 7.93677C71.7158 7.44613 70.8584 6.85815 69.4126 6.5386L67.5258 6.1217C66.6192 5.92603 66.5701 5.60648 66.5701 5.26333C66.5701 5.0185 66.6428 4.84643 66.8638 4.67437C67.182 4.42954 67.6722 4.38038 67.9914 4.38038C69.3144 4.38038 70.6128 5.11584 71.324 5.60648L72.9161 1.43655C70.9311 0.235024 69.2407 0.0137939 67.9423 0.0137939C65.3444 0.0137939 63.5067 0.847583 62.2573 2.12383C61.1789 3.20245 60.6642 4.50328 60.6642 6.02337C60.6642 7.2013 61.007 8.18258 61.8409 9.04095C62.7474 9.97306 63.7522 10.2671 64.6833 10.4391L66.1291 10.7095C66.741 10.8314 67.0603 10.9052 67.2557 11.1018C67.4276 11.2729 67.4521 11.5187 67.4521 11.6662C67.4521 11.911 67.403 12.1804 67.1329 12.4017C67.0111 12.5 66.6674 12.6957 65.859 12.6957C64.4132 12.6957 63.1639 11.9602 62.551 11.4941L61.9136 11.0035L60.125 15.6149L60.6642 15.8361C62.0609 16.3995 63.7277 17.1114 66.2264 17.1114C69.2898 17.1114 71.0538 15.9826 71.985 15.0259C73.088 13.8736 73.4553 12.5737 73.4553 11.1756C73.4553 10.1943 73.2343 8.94263 72.206 7.93677Z" fill="white"/>
<path d="M91.1231 2.63905C89.7264 1.2163 87.4468 0.0137939 84.3352 0.0137939C81.2236 0.0137939 78.9439 1.2163 77.5472 2.63905C76.2733 3.9389 75.2686 5.95062 75.2686 8.55031C75.2686 11.15 76.2733 13.1863 77.5472 14.4871C78.9439 15.9099 81.2236 17.1114 84.3352 17.1114C87.4468 17.1114 89.7264 15.9099 91.1231 14.4871C92.397 13.1863 93.4018 11.1756 93.4018 8.55031C93.4018 5.92505 92.397 3.9389 91.1231 2.63905ZM84.3528 12.2217C82.3187 12.2217 80.6696 10.5709 80.6696 8.53458C80.6696 6.49828 82.3187 4.84643 84.3528 4.84643C86.387 4.84643 88.0361 6.4973 88.0361 8.53458C88.0361 10.5719 86.387 12.2217 84.3528 12.2217Z" fill="white"/>
<path d="M101.88 11.4695V0.38147H95.9492V16.7436H106.878V11.4695H101.88Z" fill="white"/>
<path d="M117.881 0.38147L115.651 8.0842C115.455 8.77148 115.333 9.60527 115.308 10.267H115.161C115.112 9.67902 114.989 8.72232 114.794 8.0842L112.515 0.38147H106.315L112.661 16.7436H117.759L124.08 0.38147H117.881Z" fill="white"/>
<path d="M32.108 18.3109H2.76998C2.58555 18.3109 2.43604 18.4606 2.43604 18.6452V19.5498C2.43604 19.7344 2.58555 19.8841 2.76998 19.8841H32.108C32.2925 19.8841 32.442 19.7344 32.442 19.5498V18.6452C32.442 18.4606 32.2925 18.3109 32.108 18.3109Z" fill="white"/>
<path d="M3.6736 18.3109H2.76998C2.58555 18.3109 2.43604 18.4606 2.43604 18.6452V19.5498C2.43604 19.7344 2.58555 19.8841 2.76998 19.8841H3.6736C3.85803 19.8841 4.00754 19.7344 4.00754 19.5498V18.6452C4.00754 18.4606 3.85803 18.3109 3.6736 18.3109Z" fill="white"/>
<path d="M32.1077 18.3109H31.2041C31.0196 18.3109 30.8701 18.4606 30.8701 18.6452V19.5498C30.8701 19.7344 31.0196 19.8841 31.2041 19.8841H32.1077C32.2921 19.8841 32.4416 19.7344 32.4416 19.5498V18.6452C32.4416 18.4606 32.2921 18.3109 32.1077 18.3109Z" fill="white"/>
<path d="M38.7869 18.3109H37.8833C37.6988 18.3109 37.5493 18.4606 37.5493 18.6452V19.5498C37.5493 19.7344 37.6988 19.8841 37.8833 19.8841H38.7869C38.9713 19.8841 39.1208 19.7344 39.1208 19.5498V18.6452C39.1208 18.4606 38.9713 18.3109 38.7869 18.3109Z" fill="white"/>
<path d="M47.2337 18.3109H37.8833C37.6988 18.3109 37.5493 18.4606 37.5493 18.6452V19.5498C37.5493 19.7344 37.6988 19.8841 37.8833 19.8841H47.2337C47.4182 19.8841 47.5677 19.7344 47.5677 19.5498V18.6452C47.5677 18.4606 47.4182 18.3109 47.2337 18.3109Z" fill="white"/>
<path d="M47.2337 18.3109H46.33C46.1456 18.3109 45.9961 18.4606 45.9961 18.6452V19.5498C45.9961 19.7344 46.1456 19.8841 46.33 19.8841H47.2337C47.4181 19.8841 47.5676 19.7344 47.5676 19.5498V18.6452C47.5676 18.4606 47.4181 18.3109 47.2337 18.3109Z" fill="white"/>
</svg>
