
<svg version="1.0" xmlns="http://www.w3.org/2000/svg"
 width="350" height="350" fill="none" viewBox="0 0 858.000000 861.000000"
 preserveAspectRatio="xMidYMid meet">
<g transform="translate(0.000000,861.000000) scale(0.100000,-0.100000)"
fill="#fff" stroke="none">
<path d="M0 4305 l0 -4305 4290 0 4290 0 0 4305 0 4305 -4290 0 -4290 0 0
-4305z m4313 3817 c14 -12 22 -13 43 -4 44 21 83 15 115 -18 27 -27 39 -30
127 -39 223 -23 325 -84 470 -280 110 -148 157 -290 168 -504 4 -80 11 -133
21 -153 22 -44 10 -101 -25 -121 -23 -13 -27 -23 -29 -67 -1 -28 -2 -62 -3
-76 0 -14 2 -63 6 -110 6 -83 5 -88 -46 -245 -43 -131 -59 -166 -86 -193 -19
-19 -34 -44 -34 -55 0 -12 -18 -74 -41 -137 -22 -63 -43 -124 -45 -135 -5 -18
16 -26 237 -93 l243 -72 31 29 c88 84 262 161 366 161 38 0 51 4 55 18 4 9 40
88 81 175 l75 157 5 158 c5 150 5 158 -16 182 l-22 25 -17 -25 c-55 -79 -114
-119 -175 -120 -138 -1 -201 184 -111 323 14 22 23 42 19 45 -3 3 -30 -2 -60
-13 -65 -22 -103 -22 -144 0 -40 20 -62 54 -68 107 -4 29 -15 53 -35 74 -37
40 -50 94 -37 154 14 61 34 89 76 107 43 17 90 11 127 -18 l26 -20 37 28 c31
24 46 28 109 29 40 1 76 4 81 7 5 3 24 2 43 -2 19 -4 49 -3 66 2 44 13 98 1
135 -30 38 -33 222 -251 283 -337 31 -43 61 -107 99 -211 221 -607 278 -993
181 -1234 -15 -38 -15 -43 2 -88 12 -29 19 -72 18 -108 -2 -147 -97 -240 -299
-293 -67 -17 -75 -23 -174 -118 l-104 -101 8 -563 c4 -309 10 -573 14 -585 4
-14 62 -66 151 -133 l145 -110 184 -21 c213 -24 263 -42 334 -116 84 -87 102
-133 290 -745 162 -528 202 -676 191 -707 -8 -24 -47 -47 -249 -151 -132 -67
-382 -198 -555 -289 -173 -92 -331 -175 -350 -184 -22 -11 -188 -39 -456 -78
-444 -64 -527 -82 -659 -148 -170 -85 -244 -150 -570 -501 -199 -214 -208
-222 -245 -222 -36 0 -44 7 -246 232 -396 441 -479 514 -655 572 -71 24 -102
27 -505 46 -236 11 -454 24 -484 28 -38 7 -156 57 -390 169 -184 88 -436 206
-560 262 -219 99 -270 131 -270 169 0 43 440 1363 481 1444 56 110 132 156
332 202 103 23 154 40 175 57 16 13 84 71 151 129 l121 105 0 176 c0 97 3 304
7 461 l6 286 -59 12 c-118 24 -183 67 -229 151 -27 51 -29 60 -32 204 -4 221
21 325 147 610 89 201 121 326 136 525 11 157 46 239 125 292 47 31 98 48 150
48 290 2 386 -1 448 -14 115 -24 134 -37 179 -124 74 -142 85 -237 38 -312
-13 -19 -26 -56 -29 -82 -5 -39 -22 -88 -45 -130 -2 -3 109 30 247 75 138 45
250 87 251 92 0 6 -30 64 -66 129 -56 101 -68 130 -75 190 -12 94 -17 107 -50
136 -24 21 -37 54 -81 210 -76 271 -71 313 49 441 l63 66 -11 58 c-12 67 -1
153 32 241 16 43 19 61 11 84 -20 57 14 112 80 132 51 15 62 37 54 109 -8 70
9 112 53 127 21 7 31 19 36 41 10 45 50 73 102 70 33 -2 48 2 67 20 14 13 39
24 56 26 17 1 41 11 53 23 37 34 93 36 130 4z"/>
<path d="M4235 8045 c-14 -66 -18 -79 -22 -67 -3 6 -10 12 -16 12 -7 0 -23 9
-37 20 -34 27 -38 25 -46 -14 -4 -24 -10 -33 -20 -29 -10 4 -14 -3 -14 -23 0
-23 -2 -26 -10 -14 -5 8 -10 11 -10 7 0 -5 -20 8 -45 29 -25 20 -48 35 -51 32
-2 -3 0 -18 6 -34 12 -30 5 -94 -10 -94 -4 0 -21 15 -36 33 -15 17 -25 25 -22
17 3 -8 -4 -19 -16 -25 -19 -10 -21 -19 -21 -123 l0 -112 -35 -11 c-85 -28
-139 -69 -91 -69 50 0 51 -8 15 -84 -46 -98 -59 -182 -41 -267 8 -35 17 -71
21 -80 5 -12 0 -18 -19 -23 -35 -9 -101 -70 -132 -124 -35 -59 -33 -99 11
-257 66 -234 59 -219 129 -253 4 -2 7 8 7 23 0 18 -6 29 -20 32 -11 3 -20 7
-20 9 0 2 -20 77 -45 167 -25 90 -45 177 -45 193 0 50 66 140 124 171 26 14
31 13 54 -4 14 -11 34 -35 44 -54 16 -31 16 -39 3 -89 -8 -30 -15 -71 -16 -90
-1 -25 -4 -18 -10 25 -16 109 -30 154 -50 160 -26 9 -57 -3 -69 -25 -10 -19
-9 -19 20 -2 26 15 31 15 44 2 34 -35 54 -248 25 -266 -5 -3 -9 -14 -9 -24 0
-10 -9 -21 -20 -25 -24 -8 -60 -52 -60 -74 1 -10 12 -3 31 22 32 39 59 48 59
20 0 -9 -10 -62 -21 -118 -22 -101 -21 -175 2 -175 6 0 9 -24 8 -57 -2 -55 2
-67 85 -227 64 -122 85 -171 77 -179 -8 -8 -11 -4 -11 16 0 16 -5 27 -14 27
-7 0 -238 -74 -512 -164 l-498 -165 -14 32 c-21 50 -62 223 -62 261 0 33 2 36
29 36 19 0 40 -10 59 -30 26 -26 38 -30 85 -30 39 0 61 6 80 20 34 27 43 26
81 -15 36 -38 75 -46 96 -20 7 8 16 12 21 9 5 -3 8 -2 7 3 -2 4 3 23 11 40 9
23 11 47 5 80 -4 30 -9 40 -12 28 -2 -11 -13 -26 -23 -33 -11 -7 -19 -21 -19
-30 0 -12 -3 -13 -8 -5 -4 7 -6 29 -4 49 3 26 11 38 28 44 19 8 24 17 24 44 0
43 -56 200 -77 218 -14 11 -15 10 -10 -7 7 -20 27 -122 27 -134 0 -3 -15 17
-34 44 -37 55 -86 105 -86 87 0 -6 5 -14 10 -17 20 -13 70 -125 70 -157 l-1
-33 -14 40 c-8 22 -15 42 -15 44 0 2 -7 -2 -15 -9 -9 -7 -18 -10 -21 -7 -4 3
-13 0 -21 -8 -12 -13 -17 -45 -26 -162 -1 -18 -5 -33 -10 -33 -4 0 -6 -5 -5
-12 4 -15 -26 -22 -58 -14 -15 4 -24 14 -24 25 0 12 -7 18 -17 17 -15 -1 -19
10 -24 54 -3 30 -6 49 -7 42 -1 -7 -9 -20 -17 -29 -9 -8 -19 -28 -22 -44 -8
-40 -47 -39 -110 5 -42 29 -50 31 -62 18 -20 -20 -4 -43 45 -66 l39 -18 0 -87
c1 -47 -1 -74 -3 -58 -2 15 -8 25 -13 22 -12 -8 -12 -235 1 -235 6 0 10 -5 10
-11 0 -5 -4 -7 -10 -4 -5 3 -10 2 -10 -4 0 -5 10 -13 21 -16 14 -5 18 -10 10
-14 -6 -4 -9 -15 -6 -24 4 -10 -1 -21 -14 -29 -19 -12 -29 -38 -15 -38 25 0
78 46 69 60 -3 5 -4 10 0 10 3 0 10 -10 15 -22 5 -15 9 -17 9 -7 1 24 27 33
331 118 765 212 782 216 797 196 7 -11 11 -26 8 -34 -23 -79 -41 -499 -22
-545 7 -19 8 -19 22 0 12 16 13 61 8 272 -3 138 -4 252 0 252 3 0 17 -32 32
-71 37 -96 70 -131 159 -168 140 -58 276 -76 358 -47 l37 13 -15 -22 c-8 -13
-14 -27 -13 -31 6 -32 -3 -54 -21 -54 -13 0 -18 -5 -14 -15 4 -9 13 -13 24
-10 43 14 25 -68 -22 -103 -33 -24 -12 -71 29 -66 26 4 25 3 -7 -12 -157 -71
-171 -79 -176 -101 -3 -12 -16 -25 -27 -29 -24 -7 -95 -59 -115 -83 -7 -9 -21
-16 -30 -17 -9 -1 -28 -2 -42 -3 -14 0 -47 -21 -75 -46 -27 -25 -55 -45 -61
-45 -8 0 -12 -13 -12 -30 1 -17 -6 -36 -14 -43 -16 -12 -28 -51 -31 -98 -1
-14 -7 -32 -13 -40 -6 -8 -14 -22 -17 -31 -4 -10 -16 -18 -27 -18 -18 0 -21
-6 -19 -42 1 -24 6 -51 11 -61 7 -13 5 -24 -7 -37 -10 -11 -15 -26 -12 -33 3
-8 0 -20 -6 -26 -9 -10 -8 -15 4 -25 9 -6 23 -32 30 -56 7 -25 16 -50 21 -57
9 -11 -10 -53 -23 -53 -14 0 -30 29 -32 58 l-2 30 -43 -13 c-24 -8 -44 -9 -48
-4 -3 5 -23 9 -44 9 -41 0 -128 25 -145 41 -15 15 16 31 32 17 10 -8 20 -8 38
0 15 7 25 8 25 2 0 -6 5 -10 11 -10 5 0 7 5 4 10 -3 6 2 10 12 11 13 0 12 3
-7 10 -17 7 -26 7 -28 0 -5 -16 -38 -13 -73 4 -16 9 -34 13 -39 10 -6 -4 -7 1
-3 11 5 13 2 16 -8 12 -10 -4 -22 5 -34 22 -10 15 -25 26 -32 23 -7 -3 -17 5
-23 18 -12 31 -45 69 -59 69 -6 0 -11 5 -11 10 0 6 5 10 10 10 6 0 10 5 10 10
0 6 -6 10 -13 10 -13 0 -30 35 -42 85 -8 34 -8 162 0 203 4 19 1 16 -9 -10 -8
-20 -18 -58 -21 -83 -5 -33 -11 -43 -19 -36 -7 6 -18 6 -26 1 -8 -5 -17 -7
-22 -4 -4 2 -12 -6 -19 -18 l-12 -22 -8 23 c-7 18 -13 21 -31 15 -13 -4 -85
-7 -161 -7 -108 1 -137 -2 -133 -12 3 -9 -7 -12 -39 -10 -24 2 -49 6 -54 10
-6 3 -19 -3 -31 -15 -26 -26 -40 -26 -33 0 4 16 2 19 -11 14 -10 -4 -18 0 -22
10 -4 10 -18 16 -37 16 l-31 0 23 -21 c17 -16 25 -19 31 -9 6 9 9 9 15 1 4 -7
1 -19 -6 -27 -10 -13 -10 -17 2 -25 8 -5 10 -9 5 -9 -11 0 -101 56 -139 87
-39 31 -53 29 -29 -4 18 -27 19 -46 14 -516 -4 -449 -3 -487 12 -481 9 3 17 7
18 8 1 0 5 84 8 186 l6 185 2 -197 c1 -127 -2 -205 -9 -220 -11 -22 -287 -267
-335 -298 -13 -8 -26 -11 -30 -8 -12 13 37 67 149 164 132 114 153 134 146
134 -3 0 -68 -54 -145 -121 -76 -66 -148 -124 -159 -129 -11 -5 -78 -21 -150
-36 -130 -27 -209 -57 -236 -90 -13 -16 -12 -17 4 -11 10 4 37 10 60 13 l42 6
-31 -20 c-81 -52 -92 -76 -246 -530 -80 -235 -180 -534 -223 -665 -63 -196
-79 -238 -93 -235 -22 5 -20 11 34 182 25 76 43 140 41 142 -2 2 -25 -62 -51
-143 -26 -82 -54 -163 -62 -182 -8 -19 -11 -37 -7 -41 4 -3 37 -19 73 -35 116
-50 589 -270 825 -382 l230 -110 457 -22 c377 -18 469 -25 528 -42 127 -35
261 -113 359 -210 49 -48 368 -396 499 -544 l53 -60 47 50 c26 28 138 148 250
267 132 142 233 240 290 283 107 80 257 156 377 190 50 14 275 52 502 85 l413
60 222 118 c123 66 374 197 558 292 184 95 339 176 344 181 16 15 -329 1152
-384 1265 -36 75 -97 140 -153 164 -26 11 -104 25 -202 35 -88 9 -174 20 -192
25 -17 4 -106 65 -196 134 l-165 125 -6 273 c-3 150 -7 429 -9 620 l-3 347
123 116 c68 63 132 115 142 115 18 0 112 28 155 45 14 6 17 5 12 -3 -5 -8 -2
-10 8 -6 9 3 13 11 9 17 -4 6 0 8 10 4 10 -4 16 -2 14 5 -1 6 4 13 12 16 9 3
11 0 6 -8 -5 -9 -4 -11 4 -6 6 4 9 11 6 15 -2 5 4 16 15 26 22 20 28 8 8 -15
-11 -12 -10 -12 5 -1 10 8 16 19 14 25 -2 6 4 28 14 48 11 21 19 55 19 76 0
45 -26 126 -45 142 -12 10 -11 17 6 43 46 75 60 152 60 326 -1 234 -27 382
-112 627 -49 144 -153 396 -182 444 -30 48 -263 326 -290 345 -31 22 -65 19
-91 -9 -12 -14 -42 -32 -67 -40 -24 -8 -48 -23 -54 -32 -5 -10 -18 -26 -28
-36 -14 -14 -16 -27 -11 -56 4 -20 11 -43 17 -50 7 -9 4 -18 -8 -32 -24 -27
-31 -25 -44 11 -19 54 -14 116 11 139 12 11 25 20 30 20 4 0 23 15 41 34 27
26 40 33 61 29 35 -7 34 14 -1 28 -18 7 -36 6 -56 -1 -16 -5 -46 -7 -67 -4
-32 5 -45 1 -88 -30 -58 -41 -75 -44 -94 -18 -39 55 -100 63 -119 15 -24 -63
3 -121 66 -144 39 -15 40 -16 20 -43 -31 -41 -7 -106 39 -106 32 0 97 41 107
67 l10 27 19 -32 c20 -33 47 -41 67 -21 16 16 35 1 28 -22 -4 -11 0 -26 9 -35
19 -19 21 -54 3 -54 -18 0 -74 -60 -86 -93 -32 -85 9 -177 80 -177 26 0 84 59
120 121 l27 46 44 -7 c24 -3 50 -10 58 -15 13 -7 13 -6 2 7 -18 23 -65 40 -98
36 -23 -2 -38 -16 -71 -67 -23 -36 -48 -68 -55 -73 -23 -14 -47 -9 -59 13 -10
19 -5 26 38 65 26 24 54 43 61 44 23 0 12 18 -15 23 -17 3 -38 -1 -51 -9 -23
-15 -23 -15 -8 9 16 24 55 47 80 47 7 0 25 14 42 31 24 26 25 30 7 20 -13 -6
-34 -9 -47 -5 -23 5 -24 8 -10 21 8 9 13 22 10 30 -3 8 -6 17 -6 19 0 3 -4 2
-10 -1 -5 -3 -10 1 -10 9 0 9 -6 17 -12 17 -7 1 1 5 17 8 23 6 34 3 45 -11 8
-9 26 -19 40 -21 22 -4 25 -9 23 -42 -2 -21 -8 -44 -14 -52 -7 -7 -9 -16 -6
-20 8 -8 46 75 47 101 0 10 7 24 15 30 8 6 17 34 21 62 6 47 4 53 -15 59 -15
5 -20 12 -16 25 4 13 -2 22 -24 33 l-30 15 -6 -39 c-4 -22 -11 -36 -16 -33
-18 11 -39 -18 -39 -53 0 -30 -3 -34 -22 -31 -20 3 -24 11 -30 58 -9 69 -4 86
27 94 14 4 25 12 25 20 0 7 18 26 41 42 31 21 45 25 57 18 21 -13 162 -181
244 -289 60 -80 134 -244 124 -272 -9 -22 -25 -14 -40 20 -14 32 -14 32 -13 5
1 -16 5 -28 10 -28 5 0 7 -9 4 -21 -3 -13 2 -28 14 -40 10 -10 19 -25 19 -33
0 -8 13 -17 29 -21 21 -4 33 -15 40 -37 13 -38 13 -41 2 -34 -14 9 -23 -44
-11 -60 7 -7 9 -17 6 -23 -3 -5 7 -20 24 -34 41 -35 58 -103 36 -146 -16 -31
-16 -65 3 -145 9 -38 5 -66 -11 -76 -4 -3 -3 -53 3 -110 13 -126 13 -145 4
-168 -4 -9 -9 -24 -10 -32 -13 -81 -44 -173 -72 -215 -22 -33 -16 -54 20 -63
34 -9 48 -2 60 31 9 23 19 22 46 -7 44 -46 38 -159 -10 -202 -21 -19 -21 -19
-19 1 5 46 3 48 -56 42 -38 -4 -64 -13 -79 -27 -13 -12 -28 -20 -32 -17 -5 3
-20 -4 -34 -16 -13 -13 -42 -28 -64 -35 -23 -6 -54 -24 -70 -40 -17 -16 -42
-37 -57 -46 -15 -10 -26 -21 -23 -25 6 -11 -73 -75 -125 -101 -25 -13 -64 -36
-88 -52 -26 -18 -51 -28 -63 -25 -10 3 -17 1 -14 -3 3 -5 -8 -14 -25 -22 -16
-7 -30 -18 -30 -24 0 -14 -107 -80 -145 -90 -17 -4 -43 -16 -60 -28 -25 -17
-47 -21 -129 -23 -72 -2 -103 -6 -116 -18 -9 -8 -32 -15 -51 -16 -32 -1 -94
-16 -75 -18 5 -1 -3 -10 -18 -22 -14 -11 -26 -26 -26 -33 0 -19 -35 -56 -54
-56 -9 0 -16 5 -16 10 0 20 -29 9 -49 -17 -12 -16 -20 -23 -19 -18 3 11 -4 15
-25 15 -16 0 -41 -56 -33 -75 3 -8 1 -17 -4 -20 -6 -4 -10 0 -10 7 0 7 -9 -2
-21 -21 -11 -19 -26 -39 -32 -46 -7 -7 -37 -40 -67 -74 -30 -33 -58 -61 -61
-61 -4 0 -10 7 -13 16 -5 12 -1 14 16 9 18 -6 19 -5 8 7 -12 12 -19 12 -49 -3
-20 -9 -39 -15 -43 -12 -5 2 -8 -1 -8 -6 0 -6 -5 -11 -11 -11 -5 0 -7 5 -4 10
3 6 0 10 -9 10 -17 0 -15 -28 3 -40 7 -4 22 -5 32 -3 11 3 19 0 19 -7 0 -7 -7
-10 -15 -6 -10 3 -15 -1 -15 -12 0 -15 -2 -15 -10 -2 -8 13 -10 13 -10 -2 0
-25 -71 -41 -139 -33 -89 10 -298 53 -336 69 -27 11 -34 20 -33 38 1 13 -2 33
-6 46 -5 13 -3 22 3 22 16 0 9 19 -16 46 -26 26 -28 48 -9 83 11 20 11 33 -2
83 -9 35 -11 63 -6 66 17 13 34 51 25 57 -5 3 -15 21 -21 41 -11 32 -10 38 11
60 17 18 31 24 49 20 32 -6 86 30 144 98 47 55 47 55 212 91 33 7 90 26 125
43 36 16 95 35 132 42 60 11 66 14 50 26 -10 7 -14 14 -9 14 5 0 3 7 -4 15
-10 13 -10 23 5 55 10 22 22 40 27 40 14 0 53 44 53 60 0 8 -5 21 -12 28 -9
10 -9 20 3 48 8 19 11 40 8 46 -4 6 3 4 17 -5 35 -25 59 -22 54 5 -3 13 -9 24
-14 26 -5 2 -29 16 -53 31 -23 16 -57 32 -74 35 -26 6 -33 14 -41 44 -11 46
-2 167 14 183 10 10 60 0 225 -41 117 -29 217 -55 221 -57 4 -3 -18 -17 -50
-32 -84 -40 -156 -110 -194 -187 -34 -69 -48 -150 -30 -180 8 -16 10 -10 11
31 1 91 68 200 155 251 52 30 167 76 173 69 3 -3 -3 -13 -14 -22 -21 -19 -39
-65 -50 -126 -3 -20 -17 -47 -30 -60 -33 -31 -32 -72 1 -75 16 -1 25 3 25 13
0 11 8 14 30 10 45 -8 76 17 84 68 4 23 11 56 16 72 29 100 30 110 13 123 -9
6 -13 12 -7 12 5 0 2 5 -6 11 -11 8 -7 9 19 5 19 -4 36 -8 37 -9 2 -2 -7 -34
-21 -73 -23 -67 -46 -252 -26 -209 5 11 10 36 10 56 1 55 39 167 77 230 48 79
131 154 216 194 167 79 308 60 393 -52 20 -27 34 -55 32 -65 -3 -9 2 -19 10
-23 11 -4 14 -14 9 -36 -3 -18 -2 -28 4 -24 16 10 12 -116 -6 -168 -8 -25 -22
-51 -30 -58 -12 -10 -13 -9 -8 5 6 16 4 16 -29 0 -31 -15 -35 -20 -26 -36 10
-19 11 -19 32 -1 21 17 21 17 7 0 -28 -37 -99 -77 -169 -94 -40 -10 -71 -21
-69 -25 2 -4 -6 -14 -17 -22 -19 -15 -19 -15 11 -16 17 0 47 11 66 24 42 28
159 85 152 74 -14 -22 20 -3 64 37 82 74 114 201 81 327 -11 41 -9 47 37 138
62 121 62 122 21 79 -19 -20 -45 -64 -57 -98 l-23 -61 -37 53 c-21 28 -61 67
-88 86 -32 21 -49 38 -45 47 7 19 33 18 33 -2 0 -14 2 -14 15 0 20 20 19 42
-2 50 -11 4 -13 10 -7 14 25 17 59 122 34 107 -16 -10 -13 -1 41 102 42 82 53
114 65 193 15 102 17 235 4 315 -4 28 -8 40 -9 27 0 -13 -5 -20 -11 -17 -5 3
-11 5 -11 3 -1 -2 -5 -93 -8 -203 -8 -223 -9 -229 -98 -385 -23 -41 -45 -95
-49 -120 -4 -25 -11 -50 -15 -56 -5 -6 -6 -19 -3 -29 6 -15 3 -16 -17 -9 -13
5 -57 9 -97 8 -65 -1 -82 -5 -166 -47 -99 -49 -174 -109 -221 -176 -30 -44
-48 -50 -19 -7 9 15 15 28 13 30 -2 2 -137 43 -299 92 -162 48 -296 88 -298
90 -2 1 3 15 11 31 8 15 29 71 47 123 18 52 39 103 47 112 35 40 24 146 -18
169 -11 5 -19 17 -19 27 0 12 3 14 8 4 12 -19 52 64 59 122 5 39 3 47 -7 41
-11 -7 -12 18 -6 136 4 79 12 149 17 156 6 7 7 18 3 24 -4 8 -3 9 5 5 6 -4 18
-2 26 4 14 12 54 6 42 -6 -3 -3 4 -31 15 -62 26 -73 20 -121 -32 -276 -46
-139 -62 -176 -73 -176 -5 0 -5 -5 -2 -10 7 -12 44 5 62 29 7 9 33 78 58 153
33 102 45 152 45 198 0 62 -18 120 -47 152 -9 10 -13 18 -9 18 4 0 2 9 -4 20
-9 18 -7 17 26 -5 48 -33 54 -32 44 8 -17 63 -27 127 -22 132 3 3 16 5 29 5
26 0 40 24 25 43 -5 6 -12 75 -15 152 -10 232 -48 345 -166 502 -117 155 -208
214 -361 233 -162 21 -201 31 -213 57 -5 12 -13 23 -16 23 -3 0 -33 -14 -66
-31 l-60 -30 -3 23 c-8 48 -38 63 -47 23z m15 -483 c0 -11 109 -56 117 -49 5
5 41 -13 154 -77 26 -15 53 -24 60 -21 15 6 61 -22 151 -91 58 -46 119 -62
142 -39 11 12 16 10 33 -13 39 -52 47 -130 18 -162 -18 -20 -17 -80 2 -80 16
0 16 -10 3 -81 -5 -30 -14 -98 -19 -152 -5 -53 -17 -111 -25 -128 -9 -17 -14
-35 -11 -39 3 -4 -1 -10 -9 -13 -21 -8 -11 -95 14 -117 11 -9 20 -27 20 -39 0
-21 -1 -21 -27 -4 l-28 18 18 -30 18 -30 -25 30 c-15 17 -21 32 -15 35 5 4 7
14 3 23 -3 9 -10 14 -15 11 -5 -3 -6 -10 -3 -16 4 -6 1 -9 -7 -6 -8 3 -15 14
-17 27 -2 14 -18 28 -47 42 -24 11 -51 32 -60 45 -18 28 -71 35 -61 8 14 -36
16 -60 6 -74 -9 -13 -11 -13 -19 -1 -8 12 -12 12 -25 2 -8 -7 -14 -18 -13 -24
1 -7 -7 -11 -18 -9 -14 2 -16 0 -7 -6 10 -7 4 -17 -23 -40 -53 -47 -64 -44
-167 47 -48 42 -49 33 -2 -19 20 -21 33 -43 30 -49 -3 -5 1 -22 9 -37 9 -19
15 -23 15 -12 0 24 14 30 46 18 23 -9 33 -7 66 15 l39 26 -7 -25 c-3 -13 -1
-33 5 -43 7 -12 10 -14 11 -4 0 11 5 10 20 -4 19 -17 20 -17 20 -1 0 9 4 15 8
12 4 -2 14 -1 22 4 8 5 21 3 33 -3 15 -9 21 -9 24 0 2 7 11 9 19 6 8 -3 14 1
14 8 0 7 11 3 26 -12 22 -21 24 -21 19 -4 -7 20 -6 20 9 1 9 -11 16 -28 16
-38 0 -9 7 -38 15 -62 14 -41 14 -48 0 -70 -13 -19 -15 -39 -9 -101 4 -49 3
-79 -3 -84 -16 -10 -53 -88 -53 -111 0 -11 -5 -20 -10 -20 -6 0 -15 -12 -21
-27 -9 -24 -26 -60 -84 -173 -5 -11 -16 -22 -24 -25 -10 -4 -11 -2 -5 8 5 7 2
5 -8 -5 -37 -40 -38 -12 -1 34 l27 33 -26 -23 c-29 -26 -46 -15 -28 18 19 36
1 21 -26 -21 -14 -23 -27 -55 -30 -72 -3 -29 -33 -67 -52 -67 -5 0 -15 6 -22
14 -13 17 -39 10 -57 -13 -7 -9 -13 -12 -13 -7 0 6 10 21 23 34 22 26 7 21
-25 -6 -16 -14 -18 -13 -18 6 0 12 -4 22 -10 22 -5 0 -10 -9 -10 -19 0 -11 -5
-23 -11 -27 -9 -5 -10 1 -5 20 3 14 4 37 0 50 -5 22 -9 24 -31 15 -32 -12 -36
-12 -30 5 10 25 -6 27 -31 4 l-25 -23 6 23 c5 23 5 23 -13 7 -18 -16 -38 -6
-26 14 8 13 -4 42 -15 35 -5 -3 -9 2 -9 10 0 19 -11 21 -28 4 -9 -9 -12 -5
-12 20 0 20 -6 35 -15 38 -10 4 -15 17 -13 38 2 36 -8 57 -25 55 -25 -3 -38 1
-32 11 3 6 -1 7 -9 4 -13 -5 -16 3 -18 47 0 30 -1 60 -1 67 1 10 -3 10 -16 -2
-15 -13 -16 -11 -19 29 -1 24 2 46 8 50 5 3 10 14 10 23 0 13 -2 13 -16 -4
-15 -18 -15 -18 -9 4 5 16 2 22 -10 22 -9 0 -14 4 -11 9 4 5 1 11 -6 13 -8 3
-6 17 8 51 15 37 23 45 39 41 18 -4 20 0 20 49 0 61 23 105 36 70 7 -16 8 -16
8 0 1 9 5 17 10 17 5 0 11 9 14 20 9 36 24 21 31 -31 5 -35 2 -68 -8 -103 -84
-277 -70 -309 133 -312 90 -2 138 -8 211 -28 105 -29 193 -33 243 -12 43 17
101 85 115 135 15 47 15 116 2 141 -6 11 -11 48 -12 82 l-2 63 -71 -18 c-84
-21 -255 -25 -338 -8 -72 16 -167 53 -234 94 -41 24 -53 37 -53 55 0 21 2 22
15 12 12 -10 15 -10 16 1 0 8 5 -1 10 -20 9 -30 11 -32 23 -16 7 10 18 15 25
11 6 -4 18 -3 25 3 10 8 17 7 26 -4 10 -12 16 -13 26 -4 11 9 15 7 20 -6 6
-16 9 -15 25 6 25 33 24 50 -1 19 l-20 -25 10 30 c6 16 16 33 22 36 7 5 4 17
-11 37 -25 36 -26 50 -4 74 18 20 43 24 43 7 0 -6 7 -8 16 -5 9 4 13 2 8 -5
-4 -7 -1 -10 7 -7 28 9 98 318 72 318 -6 0 -13 -15 -16 -32 -4 -31 -13 -80
-38 -205 -9 -48 -12 -52 -29 -43 -14 8 -29 6 -55 -4 -51 -22 -66 -76 -29 -107
8 -6 14 -16 14 -21 0 -6 -7 -5 -16 3 -13 10 -17 10 -24 0 -6 -10 -10 -8 -15 8
-9 29 -54 28 -91 -4 -34 -29 -44 -31 -44 -8 0 15 -2 15 -14 -3 -8 -11 -18 -33
-21 -47 -4 -15 -11 -29 -15 -32 -5 -3 -5 9 1 27 14 50 11 56 -11 23 -11 -16
-20 -25 -20 -19 0 6 15 31 34 56 32 42 39 45 90 51 89 9 101 25 15 20 -72 -4
-75 -5 -116 -49 -23 -24 -44 -58 -48 -74 -4 -17 -11 -30 -17 -30 -6 0 -8 7 -5
14 4 10 1 13 -7 10 -16 -6 -36 -48 -36 -77 0 -12 -7 -31 -15 -41 -14 -18 -15
-16 -15 28 0 26 4 45 9 42 4 -3 13 6 19 19 12 25 11 25 -12 10 -24 -16 -24
-16 -24 21 0 24 -6 42 -17 50 -9 7 -12 15 -6 18 5 4 9 15 8 26 -1 10 -5 16
-10 13 -4 -3 -6 -12 -3 -20 3 -8 2 -12 -3 -8 -5 3 -12 -1 -14 -7 -3 -7 -3 9 0
35 4 31 1 57 -7 72 -10 19 -11 31 -2 48 6 12 13 39 17 60 3 21 10 35 15 32 10
-6 24 38 23 67 -1 9 5 19 13 22 12 4 14 14 9 36 -5 24 -3 30 10 30 8 0 18 6
21 14 3 8 18 19 33 26 34 14 42 30 93 185 27 83 41 146 45 202 6 80 7 84 36
98 17 8 47 15 67 15 44 0 60 23 35 50 -17 19 -19 30 -5 30 6 0 10 -4 10 -8z
m600 -201 c0 -6 -4 -13 -10 -16 -5 -3 -10 1 -10 9 0 9 5 16 10 16 6 0 10 -4
10 -9z m878 -105 c-18 -18 -46 -66 -62 -107 -44 -112 -84 -156 -100 -112 -4
10 3 26 18 42 14 14 32 43 41 65 25 58 94 146 117 146 16 0 13 -5 -14 -34z
m-184 -17 c19 -11 40 -18 46 -14 15 9 12 -3 -7 -38 -10 -18 -19 -33 -19 -35
-1 -2 -18 4 -38 12 -33 14 -36 18 -36 55 0 47 6 49 54 20z m316 -13 c0 -2 -7
-7 -16 -10 -8 -3 -12 -2 -9 4 6 10 25 14 25 6z m-2080 -111 c0 -8 -7 -11 -20
-8 -16 4 -18 8 -9 19 13 16 29 10 29 -11z m127 -107 c-3 -7 -5 -2 -5 12 0 14
2 19 5 13 2 -7 2 -19 0 -25z m790 -479 c1 -13 0 -18 -3 -11 -5 10 -10 9 -25
-4 -22 -20 -24 -15 -7 21 14 31 32 28 35 -6z m-841 -36 c-10 -10 -19 5 -10 18
6 11 8 11 12 0 2 -7 1 -15 -2 -18z m861 -20 c-3 -10 -5 -4 -5 12 0 17 2 24 5
18 2 -7 2 -21 0 -30z m-117 -3 c0 -5 -5 -10 -11 -10 -5 0 -7 5 -4 10 3 6 8 10
11 10 2 0 4 -4 4 -10z m-638 -86 c-5 -9 -7 -26 -4 -37 3 -13 1 -18 -6 -13 -6
3 -12 1 -15 -6 -2 -7 -3 0 -1 16 2 16 9 35 15 43 16 18 22 16 11 -3z m247 -19
c123 -62 313 -89 436 -61 39 8 80 18 93 22 31 9 29 -10 -12 -92 -36 -71 -73
-104 -117 -104 -13 0 -72 -4 -130 -9 -125 -10 -178 -1 -260 47 -70 41 -82 65
-73 153 4 38 8 69 11 69 2 0 26 -11 52 -25z m-302 -147 c-3 -8 -6 -5 -6 6 -1
11 2 17 5 13 3 -3 4 -12 1 -19z m294 -59 c18 -9 19 -13 6 -27 -8 -9 -17 -24
-21 -32 -4 -8 3 -2 17 13 22 26 26 27 51 16 27 -13 28 -17 11 -64 l-7 -20 16
20 c34 44 35 45 62 35 14 -6 36 -10 50 -10 18 0 24 -6 25 -22 1 -22 1 -22 8 2
6 22 12 25 51 25 42 0 45 -2 51 -30 6 -28 7 -28 8 -5 1 20 9 29 34 38 18 7 40
12 49 12 19 0 63 -139 48 -154 -21 -21 -115 -18 -222 8 -82 20 -131 26 -217
26 -84 0 -120 4 -143 16 -24 13 -28 18 -17 24 8 5 35 38 59 74 25 36 49 66 53
66 5 0 17 -5 28 -11z m-214 -171 c-3 -8 -6 -5 -6 6 -1 11 2 17 5 13 3 -3 4
-12 1 -19z m-761 -55 c-3 -8 -6 -19 -6 -24 0 -16 -28 -9 -55 14 l-26 22 46 2
c38 1 45 -2 41 -14z m-429 -205 c-3 -7 -5 -2 -5 12 0 14 2 19 5 13 2 -7 2 -19
0 -25z m13 -28 c0 -5 -4 -10 -10 -10 -5 0 -10 5 -10 10 0 6 5 10 10 10 6 0 10
-4 10 -10z m1918 -90 c-2 -13 -7 -17 -16 -11 -10 6 -10 14 -1 37 9 22 13 25
16 12 3 -10 3 -27 1 -38z m-128 -94 c0 -7 -15 -21 -34 -30 -36 -17 -111 -22
-102 -7 3 4 17 6 32 3 14 -2 29 0 33 5 5 8 58 41 69 43 1 0 2 -6 2 -14z m-195
-6 c-3 -5 -14 -10 -23 -10 -15 0 -15 2 -2 10 20 13 33 13 25 0z m215 -19 c0
-12 -20 -25 -27 -18 -7 7 6 27 18 27 5 0 9 -4 9 -9z m65 -311 c3 -5 -1 -10
-10 -10 -9 0 -13 5 -10 10 3 6 8 10 10 10 2 0 7 -4 10 -10z m1255 -713 c0
-217 3 -489 7 -605 l6 -211 128 -103 c103 -82 124 -104 106 -106 -38 -4 -531
67 -541 79 -2 2 -6 259 -9 571 l-6 566 54 31 c63 35 221 146 230 161 21 35 25
-20 25 -383z m-2677 203 c4 -16 0 -20 -19 -20 -27 0 -29 5 -11 25 17 20 24 18
30 -5z m-656 -422 c-1 -73 -3 -14 -3 132 0 146 2 205 3 133 2 -73 2 -193 0
-265z m682 360 c19 -46 21 -60 14 -83 -6 -20 -15 3 -37 89 -9 37 7 32 23 -6z
m-603 -25 c40 -23 61 -27 119 -27 38 0 82 3 98 7 l27 7 -2 -532 -3 -533 -100
-17 c-140 -24 -486 -70 -491 -66 -2 2 61 56 140 120 l143 116 6 114 c4 62 7
276 7 476 0 199 2 362 4 362 2 0 25 -12 52 -27z m2419 -83 c-3 -5 -1 -10 5
-10 7 0 10 -6 8 -12 -3 -7 1 -19 9 -26 10 -11 19 -99 15 -143 -1 -3 -3 -30 -6
-59 -6 -69 -85 -228 -133 -271 -20 -17 -49 -54 -67 -82 -26 -44 -35 -52 -58
-49 -20 2 -32 -5 -52 -31 -14 -19 -26 -44 -26 -56 0 -13 -9 -34 -20 -48 -11
-14 -20 -33 -20 -42 -1 -11 -4 -10 -13 7 -7 12 -16 19 -20 16 -4 -4 -7 -1 -7
6 0 7 -7 22 -17 32 -15 17 -15 22 3 76 10 31 23 60 28 63 5 4 6 14 3 22 -4 12
-2 14 10 10 10 -4 14 -2 10 4 -4 6 -2 13 5 15 8 3 8 12 -2 34 -11 24 -18 30
-37 26 -19 -4 -26 3 -43 43 -11 26 -20 50 -20 55 0 9 47 20 100 24 19 2 40 4
45 5 6 0 31 21 57 45 48 45 62 67 149 235 27 52 49 88 49 80 0 -8 8 -2 18 14
9 15 20 27 25 27 4 0 5 -4 2 -10z m-1788 -53 c1 -39 0 -46 -7 -27 -10 32 -12
80 -2 80 4 0 8 -24 9 -53z m39 -164 c-3 -3 6 -21 21 -39 15 -21 20 -34 13 -34
-9 0 -8 -5 3 -18 22 -24 83 -24 81 1 -2 20 -2 20 47 5 31 -9 44 -8 63 2 32 17
76 6 76 -20 0 -10 9 -22 20 -25 20 -6 19 -8 -8 -43 -45 -57 -62 -97 -62 -147
0 -44 1 -45 18 -28 11 10 27 42 38 72 10 29 32 69 49 87 l30 35 118 1 c64 1
120 -2 124 -5 3 -4 -2 -25 -12 -47 -15 -33 -23 -40 -46 -40 -37 0 -73 -49 -67
-91 4 -26 1 -32 -20 -40 -14 -5 -27 -7 -30 -5 -2 3 -17 -1 -33 -9 -15 -8 -36
-15 -46 -15 -34 -1 -143 -101 -143 -131 0 -16 53 0 78 24 15 14 56 37 92 50
68 25 114 22 133 -9 4 -8 14 -14 21 -14 33 0 29 -58 -6 -97 -11 -12 -18 -29
-15 -37 3 -8 1 -16 -4 -18 -11 -4 -21 -47 -20 -90 0 -14 -6 -32 -14 -38 -23
-19 -19 -71 5 -77 18 -5 18 -7 4 -34 l-15 -29 96 0 c52 0 95 1 95 3 0 1 -9 21
-20 42 -14 27 -18 49 -14 69 5 21 3 27 -6 21 -8 -5 -11 -4 -6 3 4 6 8 37 9 70
2 32 7 64 11 70 4 7 5 20 2 29 -4 9 -1 20 5 24 7 4 8 12 3 20 -11 17 -13 89
-3 89 4 0 1 13 -7 29 -16 33 -9 114 12 132 8 6 14 26 14 45 0 31 -1 32 -29 24
-28 -8 -29 -7 -21 21 13 45 20 52 38 37 12 -10 14 -10 8 0 -4 6 -2 12 3 12 15
0 14 27 -1 33 -10 4 -10 7 0 18 9 10 15 11 20 3 4 -6 14 -12 22 -13 8 0 65 -5
125 -10 123 -10 171 -22 208 -51 20 -16 39 -20 87 -19 33 1 62 0 64 -2 6 -6
-23 -139 -35 -160 -5 -11 -17 -19 -25 -19 -9 0 -12 -5 -8 -12 4 -7 3 -8 -5 -4
-6 4 -19 2 -27 -5 -12 -10 -13 -9 -8 5 5 13 -1 16 -41 16 -25 0 -44 4 -41 8 7
12 -162 13 -224 1 -50 -10 -127 -46 -117 -55 2 -2 20 3 40 11 20 8 52 15 70
15 30 0 34 -3 30 -23 -4 -22 0 -25 59 -37 114 -22 134 -29 158 -55 13 -14 35
-25 49 -25 35 -1 65 -21 69 -45 2 -11 10 -30 17 -42 12 -18 12 -34 1 -105 -19
-113 -27 -130 -67 -144 l-34 -11 55 -6 c30 -4 172 -9 315 -12 342 -7 865 -41
990 -64 28 -6 122 -17 210 -26 223 -23 225 -23 249 -110 10 -34 126 -616 126
-629 0 -6 -5 -4 -10 4 -8 11 -12 12 -18 3 -4 -7 -38 130 -77 313 -38 179 -74
332 -80 340 -12 16 -352 59 -380 48 -9 -4 -20 -2 -24 4 -14 22 -506 57 -1039
74 -295 9 -474 9 -770 0 -483 -15 -822 -38 -841 -57 -10 -10 -18 -11 -32 -2
-22 14 -206 -2 -578 -48 -251 -32 -268 -35 -336 -69 -93 -46 -180 -137 -229
-238 -70 -145 -104 -322 -75 -381 9 -19 7 -18 -10 3 -17 21 -21 22 -21 7 0
-10 5 -28 11 -39 7 -14 8 -18 0 -14 -15 10 -31 74 -31 131 0 99 63 286 131
389 72 110 152 174 257 206 89 28 768 113 874 110 18 -1 85 4 148 9 63 6 148
14 189 17 l73 6 -5 46 c-4 26 -15 162 -27 302 -11 140 -25 263 -30 273 -12 20
-93 248 -103 289 -6 22 -4 26 8 21 9 -3 14 -8 11 -10z m1627 -425 c3 -10 8 -9
22 2 17 14 18 13 12 -10 -3 -14 -13 -62 -23 -107 -16 -76 -18 -81 -31 -63 -15
22 -30 148 -20 174 8 19 34 21 40 4z m-173 -578 c265 -9 662 -32 825 -48 l70
-7 13 -94 c7 -51 11 -95 8 -98 -3 -3 -101 2 -218 11 -506 39 -1079 54 -1531
41 -227 -6 -271 -10 -288 -24 -22 -18 -25 -34 -54 -341 -23 -243 -8 -216 -128
-224 -56 -4 -107 -12 -114 -18 -7 -6 -13 -7 -13 -2 0 15 69 516 76 553 l7 34
-139 -7 c-115 -6 -144 -10 -166 -27 -34 -24 -34 -25 -12 110 l17 99 61 6 c379
37 1083 53 1586 36z m-1788 -67 c-5 -10 -17 -55 -27 -100 l-18 -82 -51 -6
c-28 -3 -154 -17 -281 -31 -305 -33 -412 -50 -440 -68 -22 -14 -46 -71 -60
-143 -5 -26 -2 -37 19 -58 29 -29 51 -32 64 -9 8 14 32 14 263 0 141 -9 266
-16 278 -16 20 0 21 -2 11 -15 -11 -13 -8 -15 15 -15 41 0 95 -30 116 -64 24
-40 24 -106 -1 -219 -22 -100 -40 -133 -102 -194 -77 -75 -122 -89 -413 -123
-219 -26 -335 -42 -637 -86 -16 -2 -28 0 -28 4 0 4 13 47 29 96 27 87 45 112
61 86 7 -11 54 -7 237 18 195 27 552 72 576 72 4 0 7 4 7 10 0 5 11 20 24 33
12 13 26 41 30 63 4 21 14 49 22 61 19 31 8 51 -35 62 -20 5 -144 14 -276 20
-380 17 -393 18 -423 39 -15 10 -35 22 -44 25 -26 9 -23 67 8 173 37 128 77
206 144 278 101 107 142 119 600 170 374 42 343 41 332 19z m2987 -26 c100
-12 104 -13 107 -37 8 -67 166 -822 179 -853 9 -21 -6 -18 315 -62 146 -21
268 -40 272 -44 3 -3 12 -35 19 -70 13 -62 13 -64 -10 -82 -31 -25 -49 -25
-348 15 -142 19 -310 40 -375 47 l-116 12 -17 96 c-19 109 -32 158 -45 163 -4
2 -31 138 -59 303 -28 165 -60 349 -71 409 -11 61 -20 113 -20 117 0 4 15 6
33 3 17 -3 79 -11 136 -17z m-1388 -213 l44 -6 -3 -84 -3 -84 -273 0 c-203 0
-276 -3 -288 -12 -24 -20 -31 -77 -13 -105 18 -26 59 -31 72 -8 8 13 47 15
288 13 l279 -3 4 -44 c6 -66 -4 -90 -43 -107 -28 -11 -103 -14 -383 -14 l-349
0 -46 24 c-25 14 -48 22 -51 19 -10 -10 -7 100 6 259 l11 147 101 4 c201 6
604 7 647 1z m704 -30 c127 -8 260 -17 296 -21 l66 -6 6 -51 c3 -28 9 -66 13
-83 l7 -33 -49 0 c-27 0 -98 4 -159 9 -354 30 -371 28 -369 -48 2 -57 17 -71
77 -71 89 0 572 -41 580 -50 5 -4 9 -29 10 -56 3 -77 -7 -79 -271 -60 -119 8
-262 18 -317 21 -136 8 -200 22 -234 51 -16 13 -33 24 -39 24 -16 0 -20 21
-26 156 -4 71 -9 155 -12 186 l-5 58 98 -6 c54 -3 202 -12 328 -20z m13 -291
c-15 -2 -42 -2 -60 0 -18 2 -6 4 27 4 33 0 48 -2 33 -4z m140 -10 c-10 -2 -26
-2 -35 0 -10 3 -2 5 17 5 19 0 27 -2 18 -5z m869 -135 c-3 -8 -6 -5 -6 6 -1
11 2 17 5 13 3 -3 4 -12 1 -19z m30 0 c-3 -8 -6 -5 -6 6 -1 11 2 17 5 13 3 -3
4 -12 1 -19z m-4466 -15 c13 -16 12 -17 -3 -4 -10 7 -18 15 -18 17 0 8 8 3 21
-13z m2254 -163 c-20 -5 13 -9 95 -10 l125 -3 -150 -8 c-287 -15 -499 -30
-507 -35 -4 -3 -8 -29 -8 -57 l-1 -52 -19 36 c-11 20 -25 39 -33 42 -27 10
-80 -8 -94 -33 -15 -25 -15 -25 2 -2 11 13 28 22 45 22 25 0 32 -10 94 -144
36 -80 66 -147 66 -150 0 -3 -16 -6 -35 -6 -29 0 -37 5 -51 31 l-16 32 -81 -7
c-58 -4 -85 -11 -92 -22 -25 -40 -33 -46 -65 -53 -47 -9 -35 -27 15 -24 37 2
65 21 77 52 2 5 35 12 75 16 72 7 72 7 79 -19 3 -15 14 -31 23 -36 12 -7 7 -9
-21 -10 -64 0 -334 -30 -518 -56 -144 -21 -189 -32 -255 -61 -44 -19 -87 -37
-95 -40 -8 -3 23 23 70 58 l84 64 51 197 c43 171 53 198 71 202 36 9 320 44
454 56 263 23 681 37 615 20z m197 -82 c8 -7 49 -79 91 -161 l76 -148 -36 3
c-29 2 -40 9 -56 35 l-19 33 -81 0 c-81 0 -82 -1 -99 -30 -14 -24 -24 -30 -50
-30 -18 0 -49 -3 -69 -6 -36 -6 -37 -5 -71 52 l-35 59 -58 -2 c-83 -3 -85 -5
-85 -63 0 -43 -3 -50 -19 -50 -11 0 -27 -3 -37 -7 -15 -6 -16 1 -10 75 3 45 9
118 12 162 l7 80 143 0 143 0 21 -27 c31 -40 24 -118 -13 -148 l-26 -20 25
-43 c14 -23 29 -42 34 -42 4 0 41 60 80 133 80 147 87 157 104 157 7 0 19 -6
28 -12z m465 -17 c40 -21 53 -62 53 -162 0 -131 3 -129 -180 -129 l-147 0 -7
61 c-3 34 -6 105 -6 157 l0 95 133 -5 c75 -3 142 -10 154 -17z m141 1 c9 -6
14 -53 19 -155 l6 -147 -31 0 c-29 0 -31 3 -36 43 -9 78 -16 254 -9 261 9 8
35 7 51 -2z m412 -33 c329 -33 312 -29 321 -63 5 -17 7 -31 6 -33 -2 -1 -32 2
-68 7 -98 14 -466 50 -510 50 -33 0 -39 -3 -39 -20 0 -24 -4 -22 125 -51 123
-27 155 -52 155 -123 0 -65 -13 -70 -166 -57 -69 6 -134 11 -145 11 -15 0 -19
7 -19 31 l0 32 113 -7 c61 -4 120 -9 130 -12 13 -4 17 1 17 20 0 23 -6 26
-117 52 -136 31 -163 50 -163 112 0 39 14 66 40 75 17 6 36 4 320 -24z m223
-141 c70 -9 80 -13 88 -36 5 -13 7 -27 4 -30 -3 -3 -51 0 -107 6 -57 7 -106 8
-110 4 -5 -5 -6 -20 -3 -34 6 -23 13 -25 128 -38 122 -15 122 -15 125 -42 3
-25 0 -28 -25 -28 -70 0 -257 30 -270 42 -13 14 -33 107 -33 157 0 23 1 23 63
17 34 -4 97 -12 140 -18z m-1964 -311 c40 -45 200 -224 354 -397 154 -173 290
-320 301 -327 33 -19 80 -15 114 10 17 12 111 112 208 222 360 407 517 575
537 575 31 0 302 -32 306 -36 2 -2 -46 -59 -107 -126 -90 -100 -108 -124 -94
-130 17 -7 753 -118 781 -118 54 0 -57 -21 -492 -94 -549 -92 -561 -95 -659
-185 -29 -27 -165 -177 -303 -335 l-250 -286 -30 33 c-16 18 -143 164 -282
324 -248 287 -303 340 -382 368 -21 7 -166 27 -322 44 -716 79 -823 91 -826
94 -1 2 129 23 290 46 160 23 374 54 475 69 100 15 182 30 182 33 0 4 -45 57
-100 119 -98 109 -112 132 -88 146 14 9 196 31 263 32 l50 1 74 -82z m535 7
c3 -9 6 -38 6 -65 0 -27 5 -49 10 -49 13 0 13 -63 1 -75 -6 -6 -11 -32 -13
-60 l-3 -50 -47 -3 -48 -3 0 160 0 161 44 0 c31 0 46 -5 50 -16z m471 -144 l0
-155 -47 -3 -48 -3 0 55 c0 43 -3 56 -15 56 -11 0 -15 11 -15 40 0 29 4 40 15
40 12 0 15 13 15 58 0 32 3 62 7 66 4 4 25 6 48 4 l40 -3 0 -155z m-275 74 c0
-47 -3 -55 -17 -52 -13 2 -19 15 -21 42 -4 47 3 66 23 66 12 0 15 -12 15 -56z
m118 14 c2 -21 -2 -47 -9 -59 -11 -22 -12 -22 -25 -4 -15 20 -19 87 -7 99 17
17 38 -1 41 -36z m-170 9 c2 -12 -3 -17 -17 -17 -15 0 -21 6 -21 21 0 25 33
22 38 -4z m110 -24 c-2 -36 -7 -49 -20 -51 -15 -3 -18 4 -18 47 0 45 3 51 21
51 18 0 20 -5 17 -47z m-373 -78 l0 -90 -30 0 -30 0 -3 79 c-4 98 0 108 35
104 l28 -3 0 -90z m673 -2 l3 -93 -30 0 c-17 0 -31 6 -35 16 -8 22 -8 159 1
168 4 4 19 6 33 4 25 -3 25 -5 28 -95z m-408 59 c0 -5 -9 -17 -20 -27 -13 -12
-20 -29 -18 -44 3 -22 9 -26 41 -29 41 -4 42 -5 26 -34 -17 -31 -5 -32 41 -3
23 15 57 29 76 32 32 5 34 4 34 -22 0 -15 -5 -45 -12 -66 l-11 -39 -77 0 c-69
0 -78 2 -83 19 -3 11 -20 29 -38 40 -19 11 -40 25 -46 31 -14 11 -18 131 -6
143 9 10 93 8 93 -1z m-350 -52 c0 -11 -6 -20 -14 -20 -18 0 -29 16 -21 30 11
18 35 11 35 -10z m820 10 c13 -9 13 -11 0 -20 -24 -16 -40 -12 -40 10 0 22 16
26 40 10z"/>
<path d="M4245 7366 c-41 -19 -74 -45 -56 -46 8 0 11 -6 7 -16 -5 -14 -2 -15
21 -8 74 20 112 -13 138 -120 10 -38 23 -76 31 -83 11 -11 14 -7 20 23 9 51
-20 178 -51 226 -28 42 -56 48 -110 24z"/>
<path d="M4294 7255 c-9 -22 1 -29 15 -11 8 10 9 16 1 21 -5 3 -13 -1 -16 -10z"/>
<path d="M4581 7120 c-27 -23 -27 -24 12 -49 17 -11 28 -21 22 -22 -5 0 -22
-2 -37 -3 -16 -1 -35 -9 -45 -18 -15 -16 -15 -26 1 -155 9 -76 16 -166 15
-201 -2 -65 6 -87 21 -62 8 13 10 13 10 1 0 -10 3 -12 10 -5 9 9 30 173 30
235 0 21 11 33 59 63 82 50 114 56 136 22 10 -14 15 -35 12 -46 -6 -24 8 -27
17 -4 21 55 -10 92 -81 96 -29 2 -55 7 -59 11 -4 4 -2 7 4 7 7 0 12 6 12 14 0
17 36 25 70 16 21 -6 41 0 89 27 5 3 -27 51 -50 74 -20 20 -81 24 -144 10 -16
-4 -42 -4 -57 0 -19 5 -33 2 -47 -11z m146 -46 c-3 -3 -12 -4 -19 -1 -8 3 -5
6 6 6 11 1 17 -2 13 -5z m-64 -61 c-7 -2 -19 -2 -25 0 -7 3 -2 5 12 5 14 0 19
-2 13 -5z"/>
<path d="M4153 7067 c-32 -30 -35 -37 -27 -63 l8 -29 4 31 c11 99 158 94 200
-6 20 -46 28 -50 34 -15 3 14 2 25 -2 25 -4 0 -12 11 -18 25 -17 36 -70 65
-120 65 -34 0 -49 -6 -79 -33z"/>
<path d="M4250 6995 c-26 -31 13 -82 44 -56 19 16 21 42 4 59 -16 16 -33 15
-48 -3z"/>
<path d="M4085 6960 c-4 -6 6 -10 22 -10 15 0 55 -14 88 -30 69 -35 103 -40
65 -10 -29 22 -123 60 -150 60 -10 0 -22 -4 -25 -10z"/>
<path d="M4320 6925 c-25 -15 -25 -15 14 -13 22 2 41 9 44 16 5 16 -27 15 -58
-3z"/>
<path d="M4704 6885 c-12 -48 55 -87 121 -71 48 12 28 28 -26 21 -49 -7 -50
-7 -37 14 16 26 1 54 -30 59 -16 2 -23 -3 -28 -23z"/>
<path d="M4650 6831 c26 -21 60 -28 60 -12 0 5 -11 12 -24 15 -13 3 -32 9 -43
12 -13 4 -11 0 7 -15z"/>
<path d="M4333 6478 c-6 -7 -14 -20 -18 -28 -8 -13 -6 -13 7 -2 13 11 17 11
21 0 2 -7 2 -2 0 10 -3 17 0 21 8 16 8 -4 9 -3 5 4 -9 15 -11 15 -23 0z"/>
<path d="M4048 5948 c-2 -6 5 -21 16 -32 19 -19 32 -21 119 -19 58 1 95 -2 92
-8 -4 -5 -1 -9 4 -9 6 0 11 4 11 9 0 12 63 21 74 11 5 -5 19 -4 32 0 30 12 30
1 0 -27 -19 -18 -22 -29 -17 -55 6 -30 31 -53 31 -28 0 19 30 -9 31 -29 0 -9
10 4 21 29 14 30 17 45 9 48 -6 2 -11 13 -11 24 0 17 4 19 28 13 15 -5 50 -9
77 -11 l50 -3 -29 16 c-50 27 -186 46 -321 47 -103 1 -137 5 -164 19 -40 20
-48 21 -53 5z m394 -90 c-8 -8 -9 -4 -5 13 4 13 8 18 11 10 2 -7 -1 -18 -6
-23z"/>
<path d="M4630 5880 c-11 -7 -7 -10 17 -10 17 0 35 5 38 10 8 13 -35 13 -55 0z"/>
<path d="M5542 7198 c-15 -15 -16 -32 -2 -23 6 3 10 0 10 -7 0 -8 5 -5 11 5
14 23 -2 42 -19 25z"/>
<path d="M4186 6294 c-4 -9 -4 -19 -1 -22 2 -3 7 3 11 12 4 9 4 19 1 22 -2 3
-7 -3 -11 -12z"/>
<path d="M4526 6245 c-3 -9 -6 -22 -5 -28 0 -7 5 -1 10 12 5 13 8 26 5 28 -2
2 -6 -3 -10 -12z"/>
<path d="M4636 6245 c-9 -26 -7 -32 5 -12 6 10 9 21 6 23 -2 3 -7 -2 -11 -11z"/>
<path d="M4272 6230 c0 -14 2 -19 5 -12 2 6 2 18 0 25 -3 6 -5 1 -5 -13z"/>
<path d="M4685 6240 c-3 -5 -1 -10 4 -10 6 0 11 5 11 10 0 6 -2 10 -4 10 -3 0
-8 -4 -11 -10z"/>
<path d="M4398 6205 c-3 -14 -1 -25 3 -25 5 0 9 11 9 25 0 14 -2 25 -4 25 -2
0 -6 -11 -8 -25z"/>
<path d="M4597 6077 c-11 -29 -9 -43 4 -30 6 6 9 19 7 29 -3 18 -4 18 -11 1z"/>
<path d="M3652 3461 c-1 -19 8 -36 32 -60 29 -28 39 -32 75 -29 l42 3 -52 40
c-29 22 -62 48 -73 57 -21 16 -22 16 -24 -11z"/>
<path d="M3574 2992 c-41 -3 -41 -3 -48 -49 -10 -74 -10 -73 38 -73 l43 0 7
61 c4 34 6 62 4 63 -2 0 -22 0 -44 -2z"/>
<path d="M2087 2789 c-10 -6 -24 -8 -31 -6 -10 4 -19 -12 -30 -52 -20 -73 -20
-75 4 -51 11 11 29 20 39 20 11 0 23 5 26 11 4 6 14 8 22 4 12 -4 13 -2 5 7
-6 7 -12 27 -14 45 -3 27 -5 30 -21 22z"/>
<path d="M2580 2120 c-23 -7 -23 -8 -3 -9 12 -1 25 4 28 9 3 6 5 10 3 9 -2 -1
-14 -5 -28 -9z"/>
<path d="M5988 2834 c2 -19 8 -36 12 -39 5 -3 36 1 69 9 55 13 61 13 61 -2 0
-8 3 -13 6 -9 4 3 4 16 1 29 -5 20 -14 23 -57 26 -28 1 -61 7 -73 11 -21 8
-22 7 -19 -25z"/>
<path d="M6085 2171 c13 -13 39 -23 70 -27 28 -4 58 -14 69 -23 14 -13 45 -16
155 -18 75 -1 199 -11 276 -23 177 -25 215 -26 215 -2 0 10 -8 18 -22 19 -13
1 -48 6 -78 12 -30 5 -93 10 -140 10 -153 1 -500 41 -545 63 -20 10 -20 10 0
-11z"/>
<path d="M3993 2883 c26 -2 68 -2 95 0 26 2 4 3 -48 3 -52 0 -74 -1 -47 -3z"/>
<path d="M4493 2883 c26 -2 67 -2 90 0 23 2 2 3 -48 3 -49 0 -68 -1 -42 -3z"/>
<path d="M5005 2870 c19 -8 273 -14 264 -6 -2 2 -67 6 -144 9 -84 4 -132 2
-120 -3z"/>
<path d="M5353 2853 c15 -2 37 -2 50 0 12 2 0 4 -28 4 -27 0 -38 -2 -22 -4z"/>
<path d="M5498 2843 c12 -2 30 -2 40 0 9 3 -1 5 -23 4 -22 0 -30 -2 -17 -4z"/>
<path d="M5618 2833 c6 -2 18 -2 25 0 6 3 1 5 -13 5 -14 0 -19 -2 -12 -5z"/>
<path d="M3410 2221 c50 -13 63 -36 56 -100 -8 -86 -30 -102 -158 -116 -92
-10 -72 -28 25 -22 117 8 116 8 153 71 19 32 30 55 24 51 -6 -4 -10 9 -10 33
0 56 -25 82 -80 87 -42 4 -43 4 -10 -4z"/>
<path d="M3298 2213 c12 -2 32 -2 45 0 12 2 2 4 -23 4 -25 0 -35 -2 -22 -4z"/>
<path d="M3203 2203 c9 -2 25 -2 35 0 9 3 1 5 -18 5 -19 0 -27 -2 -17 -5z"/>
<path d="M3540 2160 c-6 -11 -8 -20 -6 -20 3 0 10 9 16 20 6 11 8 20 6 20 -3
0 -10 -9 -16 -20z"/>
<path d="M3255 2141 l-50 -6 -17 -120 c-9 -66 -17 -121 -17 -122 -1 -2 -15 -3
-32 -3 -27 0 -30 -2 -19 -15 13 -16 47 -20 68 -7 7 5 19 59 28 124 17 116 17
116 47 122 57 12 127 7 127 -8 0 -8 -6 -17 -12 -19 -8 -3 -6 -6 5 -6 13 -1 17
7 17 34 l0 35 -47 -2 c-27 0 -70 -4 -98 -7z"/>
<path d="M3586 2102 c-14 -23 -26 -44 -26 -47 0 -3 18 -5 40 -5 45 0 48 8 26
61 l-14 32 -26 -41z m44 -26 c0 -3 -4 -8 -10 -11 -5 -3 -10 -1 -10 4 0 6 5 11
10 11 6 0 10 -2 10 -4z"/>
<path d="M3298 2073 c12 -2 32 -2 45 0 12 2 2 4 -23 4 -25 0 -35 -2 -22 -4z"/>
<path d="M3893 2183 c-7 -2 -13 -21 -13 -40 0 -28 3 -34 16 -29 9 3 53 6 99 6
78 0 83 1 87 23 8 43 1 47 -90 46 -48 0 -93 -3 -99 -6z"/>
<path d="M4317 2125 c-24 -50 -22 -55 24 -55 22 0 39 3 37 8 -2 4 -10 24 -18
45 -8 20 -17 37 -20 37 -4 0 -14 -16 -23 -35z"/>
<path d="M4610 2096 l0 -97 103 3 102 3 -3 80 c-1 43 -5 82 -10 86 -4 5 -49
11 -99 15 l-93 7 0 -97z"/>
<path d="M6135 7055 c4 -11 10 -29 13 -40 7 -25 52 -94 52 -79 0 5 -7 19 -15
30 -8 10 -15 26 -15 34 0 8 -10 29 -21 45 -12 17 -18 21 -14 10z"/>
<path d="M3692 6867 c-12 -13 -22 -32 -22 -42 0 -15 7 -11 31 19 22 26 38 36
50 33 11 -3 17 -1 13 4 -10 17 -50 9 -72 -14z"/>
<path d="M5013 6773 c-13 -33 -7 -206 7 -198 6 3 10 15 10 25 0 11 8 27 19 37
26 25 34 58 26 109 -5 38 -9 44 -31 44 -14 0 -28 -7 -31 -17z"/>
<path d="M2681 6434 c-66 -20 -100 -44 -126 -89 -23 -38 -28 -65 -40 -197 -22
-243 -40 -314 -140 -548 -35 -80 -78 -190 -96 -245 -30 -91 -33 -112 -35 -230
-1 -71 -5 -146 -10 -165 l-8 -35 -7 30 c-6 28 -7 28 -8 4 -1 -36 42 -121 78
-151 16 -14 27 -29 23 -32 -3 -4 2 -4 12 0 13 5 17 4 12 -4 -5 -8 -1 -10 10
-5 11 4 15 3 11 -4 -5 -7 1 -9 15 -6 16 3 19 2 10 -4 -16 -12 94 -6 165 8 73
14 75 28 4 22 -32 -3 -79 -3 -104 1 -88 13 -164 87 -175 170 -5 41 -5 41 16
23 20 -18 20 -18 -1 24 -57 116 -16 301 141 639 73 158 111 306 133 522 13
135 32 178 94 208 38 18 54 20 158 14 88 -5 117 -10 117 -21 0 -7 7 -13 15
-13 8 0 15 7 15 15 0 8 5 15 10 15 6 0 10 -4 10 -9 0 -6 12 -6 30 -1 19 5 30
5 30 -1 0 -6 5 -7 10 -4 6 4 7 11 4 17 -4 7 11 8 47 3 113 -14 123 -20 158
-84 17 -33 36 -85 43 -115 10 -50 9 -59 -7 -76 -22 -24 -14 -36 14 -21 46 25
39 113 -17 223 -41 82 -68 101 -163 118 -80 14 -405 17 -448 4z"/>
<path d="M2975 6275 c35 -29 60 -32 69 -9 10 26 -3 34 -52 34 l-47 -1 30 -24z"/>
<path d="M5983 6114 c-6 -13 -7 -24 -3 -24 9 0 25 39 18 45 -2 2 -8 -7 -15
-21z"/>
<path d="M2900 5830 c0 -13 21 -103 26 -108 1 -2 54 13 118 34 l115 38 -36 22
c-30 18 -42 20 -66 12 -28 -10 -105 -6 -139 7 -11 4 -18 3 -18 -5z"/>
<path d="M3895 5467 c-16 -5 -43 -16 -60 -22 -29 -12 -99 -29 -159 -38 -16 -3
-43 -1 -60 4 -105 32 -230 29 -326 -6 -25 -9 -52 -17 -60 -17 -8 0 -23 -7 -32
-16 -16 -13 -25 -11 -90 22 -96 47 -193 64 -280 48 -87 -16 -135 -52 -175
-129 -98 -194 -11 -396 192 -442 34 -8 59 -9 75 -2 22 9 20 10 -21 10 -64 1
-162 52 -199 103 -42 58 -53 101 -48 184 12 181 123 261 311 224 121 -23 172
-59 182 -125 1 -5 13 -33 28 -62 15 -29 27 -59 27 -68 0 -65 48 -124 74 -90 6
8 23 19 39 24 23 9 27 16 25 43 -1 18 -6 39 -11 46 -5 6 -6 12 -2 12 4 0 3 6
-3 13 -6 6 -10 14 -11 17 0 3 -3 13 -7 23 -3 10 -4 21 -1 24 4 3 2 15 -4 26
-8 14 -8 18 0 13 11 -7 15 5 12 31 -1 7 10 15 24 19 14 3 25 9 25 13 0 4 22 3
49 -2 42 -9 51 -8 66 7 19 19 13 31 -20 39 -12 3 -7 5 14 6 48 1 141 -26 171
-51 14 -11 18 -16 10 -12 -8 4 6 -15 33 -42 26 -28 47 -55 47 -62 0 -15 44
-62 58 -62 5 0 14 -11 20 -25 14 -30 6 -31 -83 -10 -33 8 -76 14 -95 14 -34
-1 -33 -2 15 -15 92 -27 219 -76 333 -130 62 -30 119 -54 127 -54 15 0 12 4
-43 63 -9 10 -42 30 -73 44 -62 29 -68 41 -69 143 -1 41 -2 43 -15 26 -8 -11
-28 -20 -46 -21 -27 -2 -33 3 -46 34 -9 20 -28 52 -43 72 l-29 35 63 27 c62
27 136 80 136 98 0 11 -5 10 -45 -4z m-502 -74 c-7 -2 -15 -4 -18 -3 -3 0 -13
-6 -21 -15 -10 -9 -31 -14 -57 -13 -23 1 -51 -2 -61 -7 -14 -6 -17 -5 -12 3
10 17 94 41 141 41 22 -1 34 -3 28 -6z"/>
<path d="M4520 5400 c-13 -8 -12 -10 3 -10 9 0 17 5 17 10 0 12 -1 12 -20 0z"/>
<path d="M6360 5359 c-66 -18 -67 -19 -47 -34 15 -11 24 -10 57 6 22 11 40 24
40 29 0 12 -3 11 -50 -1z"/>
<path d="M4077 5329 c-21 -12 -22 -58 -3 -144 11 -51 31 -105 39 -105 5 0 -6
236 -12 247 -4 8 -11 9 -24 2z"/>
<path d="M2213 5130 c0 -25 2 -35 4 -22 2 12 2 32 0 45 -2 12 -4 2 -4 -23z"/>
<path d="M6180 5054 c-41 -42 -92 -87 -112 -100 l-38 -24 2 -188 3 -187 2 178
3 179 113 108 c61 60 110 109 107 110 -3 0 -39 -34 -80 -76z"/>
<path d="M2222 5050 c0 -14 2 -19 5 -12 2 6 2 18 0 25 -3 6 -5 1 -5 -13z"/>
<path d="M2225 5009 c-4 -6 -5 -12 -2 -15 2 -3 7 2 10 11 7 17 1 20 -8 4z"/>
<path d="M4022 4888 c2 -6 10 -14 16 -16 7 -2 10 2 6 12 -7 18 -28 22 -22 4z"/>
<path d="M2418 4733 c7 -3 16 -2 19 1 4 3 -2 6 -13 5 -11 0 -14 -3 -6 -6z"/>
<path d="M2533 4620 c0 -36 2 -50 4 -32 2 17 2 47 0 65 -2 17 -4 3 -4 -33z"/>
<path d="M1691 3009 c-22 -68 -39 -124 -37 -126 2 -2 22 51 45 118 22 68 39
124 37 126 -2 2 -22 -51 -45 -118z"/>
<path d="M1496 2433 c-42 -125 -76 -233 -75 -238 0 -6 36 95 80 224 43 129 77
236 75 238 -2 3 -38 -98 -80 -224z"/>
</g>
</svg>
